<svg width="102" height="101" viewBox="0 0 102 101" fill="none" xmlns="http://www.w3.org/2000/svg">
<path d="M44.2544 0.18483C31.7356 1.48526 20.7094 9.13017 15.2362 20.3217C14.3206 22.1738 13.3852 24.6762 12.5493 27.4346C12.3503 28.144 12.1911 28.2228 10.4197 28.6168C7.81244 29.2079 5.02606 30.9615 3.11539 33.2274C2.02074 34.5279 0.647449 37.4046 0.2892 39.2173C-0.666133 43.887 0.766866 48.4779 4.26975 51.926L5.52363 53.1476L5.58333 66.7035C5.66295 81.6781 5.60324 80.89 6.97653 83.609C7.61342 84.8504 9.56389 86.998 10.6585 87.668L11.3153 88.0817V90.6038C11.3153 92.0027 11.4148 93.6184 11.5343 94.1898C12.2508 97.5591 15.0172 100.121 18.54 100.692C21.8439 101.224 25.4861 99.49 27.1181 96.5936C27.954 95.1158 28.2327 93.8745 28.2327 91.648V89.6186H50.9218H73.611V91.5495C73.611 93.7169 73.9294 95.1947 74.7056 96.5542C76.3575 99.49 80.0794 101.263 83.3633 100.692C86.7866 100.081 89.3541 97.7561 90.2497 94.4459C90.4089 93.8548 90.5283 92.3968 90.5283 90.7811V88.1014L91.2846 87.6088C93.2351 86.3281 94.9666 83.944 95.8225 81.3432C96.1608 80.358 96.1807 79.1167 96.2603 66.6247L96.32 52.99L96.9171 52.5565C97.8923 51.8669 99.604 49.6798 100.34 48.1823C102.351 44.084 102.351 39.9069 100.38 35.9268C98.3103 31.7497 95.2254 29.405 90.1303 28.2031C89.573 28.0651 89.4138 27.9075 89.2744 27.3558C85.3337 12.4206 72.775 1.7217 57.3106 0.18483C54.9422 -0.0713141 46.6029 -0.0516107 44.2544 0.18483ZM55.7184 5.68208C68.277 6.58844 78.507 14.1742 82.806 25.7796C83.9206 28.7548 83.9206 28.6168 82.7065 28.9912C80.1391 29.799 77.1338 32.262 75.6211 34.784C75.1833 35.5327 74.5862 36.8332 74.2678 37.7001L73.7105 39.2764L73.6508 47.5912L73.5911 55.9258H50.9019H28.2327V48.537C28.2327 40.4389 28.1133 39.2961 27.0584 36.8135C25.5259 33.2668 22.5206 30.2916 19.2167 29.0306C18.6993 28.8336 18.2415 28.6168 18.1818 28.538C18.0624 28.341 19.2366 25.0308 20.0725 23.2575C24.8492 13.1891 34.6215 6.50962 45.7471 5.70178C48.7524 5.46534 52.8325 5.46534 55.7184 5.68208ZM17.3658 34.3111C19.6944 35.3751 21.1871 37.0499 22.1026 39.5719C22.5405 40.8133 22.5604 41.1088 22.6201 48.6749L22.6798 56.4972L21.5852 57.0292C20.192 57.6991 18.4206 59.5118 17.7837 60.891C15.475 65.9351 18.6395 71.787 24.1725 72.6737C25.7448 72.9298 76.0988 72.9298 77.6711 72.6737C83.2041 71.787 86.3686 65.9351 84.0599 60.891C83.423 59.5118 81.6517 57.6991 80.2585 57.0292L79.1638 56.4972L79.2235 48.3794C79.2833 40.4389 79.3032 40.2419 79.741 39.1385C81.1143 35.7692 84.1992 33.6609 87.7419 33.6609C91.0657 33.6609 93.8322 35.3751 95.3448 38.37C95.922 39.5128 96.0016 39.8675 96.0613 41.6211C96.121 43.2959 96.0613 43.7885 95.703 44.7342C95.0661 46.4287 94.1506 47.6306 92.5982 48.7734C90.3492 50.4482 90.5283 48.9705 90.5283 65.2258C90.5283 78.8408 90.5084 79.3925 90.1303 80.3974C89.6327 81.7175 88.5579 82.8406 87.1448 83.4908L86.0502 84.0031H50.9218H15.7935L14.6988 83.4908C13.2857 82.8406 12.211 81.7175 11.7134 80.3974C11.3352 79.3925 11.3153 78.8408 11.3153 65.2652C11.3153 52.7141 11.2755 51.0787 10.9969 50.4876C10.8178 50.1133 10.1013 49.4039 9.34496 48.8522C8.62846 48.3005 7.79254 47.5715 7.5139 47.2169C3.9115 42.6654 5.88188 36.0056 11.4347 34.055C13.1464 33.4639 15.7337 33.5821 17.3658 34.3111ZM77.5517 61.9156C79.542 62.9402 79.7211 65.6395 77.8901 66.7626C77.2532 67.1567 76.9745 67.1567 50.9218 67.1567C24.8691 67.1567 24.5905 67.1567 23.9536 66.7626C23.0779 66.2306 22.5803 65.1667 22.7196 64.0633C22.8191 63.1372 23.1973 62.5855 24.1526 62.0141C24.7298 61.6595 25.7846 61.6398 50.882 61.6398C72.9343 61.6398 77.0939 61.6792 77.5517 61.9156ZM22.6201 91.4707C22.5604 93.4608 22.3415 93.973 21.2269 94.8006C20.5502 95.2932 18.9978 95.2932 18.3211 94.8006C17.2264 93.9927 17.0075 93.4805 16.9279 91.4904L16.8483 89.6186H19.774H22.6997L22.6201 91.4707ZM84.9157 91.4904C84.8361 93.4805 84.6172 93.9927 83.5225 94.8006C82.8459 95.2932 81.2934 95.2932 80.6167 94.8006C79.5022 93.973 79.2833 93.4608 79.2235 91.4707L79.1439 89.6186H82.0696H84.9953L84.9157 91.4904Z" fill="#366FB5"/>
</svg>
