<svg width="51" height="51" viewBox="0 0 51 51" fill="none" xmlns="http://www.w3.org/2000/svg">
<path opacity="0.988" fill-rule="evenodd" clip-rule="evenodd" d="M24.8701 0.206838C25.2373 0.209947 25.6046 0.213057 25.9718 0.216166C33.5827 7.02939 41.1819 13.8648 48.7694 20.7224C50.6471 23.037 50.7007 25.3813 48.9302 27.7553C46.909 29.7653 44.4622 30.3142 41.5897 29.4022C41.0415 29.1865 40.5296 28.9217 40.054 28.6079C37.1201 25.9626 34.1861 23.3171 31.2522 20.6718C31.1449 29.0045 31.0376 37.3372 30.9303 45.6699C30.3912 48.0941 28.7809 49.6105 26.0992 50.219C25.3648 50.2128 24.6304 50.2066 23.8959 50.2004C21.225 49.5465 19.6406 48.0031 19.1426 45.5701C19.1764 37.2368 19.2102 28.9034 19.2441 20.5701C16.2658 23.1654 13.2874 25.7608 10.3092 28.356C7.74625 29.9221 5.17543 29.9328 2.59672 28.3884C0.367708 26.6339 -0.293599 24.496 0.612808 21.9749C0.901799 21.3757 1.27371 20.8255 1.72852 20.3241C9.43101 13.5959 17.1449 6.8902 24.8701 0.206838Z" fill="#009144"/>
</svg>
