<svg width="51" height="51" viewBox="0 0 51 51" fill="none" xmlns="http://www.w3.org/2000/svg">
<path opacity="0.988" fill-rule="evenodd" clip-rule="evenodd" d="M25.5515 50.2118C25.1843 50.2087 24.817 50.2056 24.4498 50.2026C16.8382 43.3902 9.23824 36.5556 1.65007 29.6987C-0.227876 27.3843 -0.281757 25.04 1.48854 22.6659C3.50952 20.6556 5.95622 20.1064 8.82887 21.0182C9.37705 21.2338 9.88902 21.4986 10.3647 21.8123C13.2988 24.4574 16.2331 27.1025 19.1673 29.7475C19.2737 21.4148 19.3801 13.082 19.4865 4.74932C20.0254 2.32511 21.6356 0.808576 24.3171 0.199715C25.0516 0.205857 25.786 0.211998 26.5204 0.21814C29.1914 0.871762 30.776 2.41501 31.2743 4.8479C31.2413 13.1812 31.2084 21.5146 31.1754 29.8479C34.1534 27.2523 37.1315 24.6567 40.1095 22.0611C42.6722 20.4947 45.2431 20.4837 47.8219 22.0279C50.0511 23.7821 50.7127 25.92 49.8065 28.4412C49.5176 29.0404 49.1457 29.5907 48.691 30.0921C40.9892 36.8211 33.276 43.5276 25.5515 50.2118Z" fill="#009144"/>
</svg>
