<svg width="297" height="198" viewBox="0 0 297 198" fill="none" xmlns="http://www.w3.org/2000/svg">
<path d="M119.774 75.6124C114.824 75.9036 105.211 76.9955 98.3957 78.0147C84.263 80.1257 84.837 79.7617 74.937 89.3705C63.3152 100.581 58.3652 104.876 55.9261 105.968C54.563 106.55 47.963 108.079 41.2196 109.462C23.5 112.956 22.2804 113.465 17.4739 118.634C13.887 122.565 12.8109 124.312 10.8022 129.626C8.07609 137.269 7 146.66 7 163.766C7 181.965 7.57391 189.39 9.08043 190.918C9.86957 191.719 11.8065 192.01 17.0435 191.937C24.0022 191.865 24.0022 191.865 19.6978 191.21C11.663 189.972 10.7304 189.754 10.7304 189.098C10.7304 188.079 21.4196 188.225 39.7848 189.535C48.4652 190.118 69.1261 190.773 85.6978 191.064C112.743 191.428 117.693 191.282 134.122 189.899C170.063 186.769 205.861 183.202 207.654 182.547C208.659 182.183 209.735 181.091 210.093 180.218C210.452 179.271 211.743 169.517 212.963 158.525C215.761 134.357 216.55 129.043 217.77 127.369C218.63 126.277 218.846 126.277 219.491 127.223C219.85 127.806 220.209 128.971 220.209 129.698C220.209 130.426 221.715 133.921 223.58 137.342C225.446 140.763 227.526 145.058 228.172 146.878C228.889 148.698 229.463 149.571 229.535 148.771C229.607 145.932 227.167 138.361 224.37 132.756C220.854 125.695 211.959 112.01 210.452 111.427C209.807 111.209 208.443 111.718 207.439 112.592C206.363 113.393 204.57 114.63 203.493 115.285C201.485 116.377 201.485 116.377 202.346 114.703C202.848 113.829 204.139 111.791 205.287 110.19C208.443 105.749 208.013 102.401 202.561 91.336C198.615 83.183 194.311 77.9419 190.867 76.9955C184.339 75.2485 139.861 74.3022 119.774 75.6124ZM181.039 78.0875C187.567 78.4514 191.872 80.2713 194.813 83.7654C196.965 86.3132 201.7 96.1404 202.848 100.435C203.493 102.837 203.422 103.129 201.987 103.493C201.198 103.711 194.885 103.929 188.07 103.929C176.376 103.929 175.443 103.857 171.283 102.037C164.396 99.125 155.93 98.5426 131.611 99.4889C111.38 100.29 90.1457 101.746 75.7261 103.274C71.8522 103.711 68.5522 103.857 68.4087 103.711C68.1935 103.565 72.3543 102.182 77.5196 100.654C89.2848 97.3051 97.0326 94.3205 117.98 85.2941C131.037 79.6889 135.485 78.0874 139.143 77.7235C143.878 77.2139 170.78 77.5051 181.039 78.0875ZM198.257 122.783C198.902 123.729 197.18 135.813 196.248 137.051C195.387 138.288 175.946 141.127 161.67 142.219C155.213 142.656 154.926 142.656 152.774 140.763C150.048 138.507 149.474 138.507 131.611 140.035C124.007 140.69 102.413 141.418 79.2413 141.855C57.5761 142.219 38.063 142.729 35.9826 142.947C32.6826 143.311 10.8022 142.073 10.2283 141.491C10.013 141.273 11.95 129.917 12.5957 127.733C13.2413 125.622 14.8913 126.35 17.1152 129.553C22.7826 137.924 25.0783 139.598 30.3152 139.598C34.9783 139.598 38.4935 137.633 42.2957 132.829C44.0174 130.572 46.0261 128.607 46.7435 128.461C47.4609 128.243 51.3348 128.388 55.4239 128.752C84.3348 131.227 102.485 131.009 138.211 127.587C148.541 126.568 159.087 125.768 161.67 125.768C166.333 125.768 166.404 125.84 167.337 128.097C168.843 131.664 173.722 136.396 176.448 136.905C184.841 138.652 189.002 136.032 193.235 126.277C194.526 123.22 195.387 122.128 196.463 122.128C197.252 122.128 198.041 122.419 198.257 122.783ZM190.15 123.584C191.872 124.603 191.872 126.277 190.078 129.262C187.209 134.066 179.461 135.886 174.941 132.829C172 130.863 169.274 126.204 170.422 125.04C171.928 123.511 187.783 122.346 190.15 123.584ZM214.47 124.894C214.47 125.258 213.824 127.442 213.035 129.698C209.95 138.943 207.296 151.901 206.22 163.111C205.646 169.444 204.928 174.976 204.713 175.34C203.852 176.796 201.485 173.521 200.122 168.862C199.333 166.241 198.328 163.693 197.898 163.184C197.539 162.747 195.53 162.165 193.45 161.873C189.217 161.364 171.713 162.31 170.996 163.111C170.709 163.402 171.857 166.532 173.435 170.099C175.085 173.666 176.448 177.16 176.448 177.888C176.448 180.29 174.08 177.16 168.843 167.915C165.4 161.801 163.32 158.889 162.1 158.379C160.88 157.87 151.626 157.943 134.48 158.525C99.9022 159.762 94.8804 159.762 93.8761 158.743C91.6522 156.487 96.1 155.977 143.448 152.701C195.459 149.135 198.687 148.843 199.978 147.824C201.557 146.66 202.848 146.587 174.224 148.334C126.374 151.173 118.339 151.464 97.5348 151.537C78.5956 151.61 73.8609 151.318 52.3391 149.207C39.1391 147.824 28.163 146.587 27.9478 146.368C27.7326 146.15 36.1261 146.15 46.6 146.441C102.987 147.824 104.35 147.824 132.328 146.223C147.322 145.422 166.691 144.403 175.372 143.966C199.261 142.874 199.835 142.801 201.843 140.035C202.776 138.798 204.426 135.959 205.574 133.775C208.3 128.534 214.47 122.419 214.47 124.894ZM36.3413 127.66C40 128.097 40.0717 128.243 39.713 130.062C37.9196 137.997 25.8674 138.871 21.9935 131.373C21.2761 129.917 20.8457 128.388 21.1326 127.951C21.6348 127.151 30.5304 127.005 36.3413 127.66ZM161.383 160.709C163.32 161.801 164.826 165.004 167.265 173.084C169.633 181.018 169.489 181.31 163.678 182.11C150.909 183.785 96.6022 187.133 90.0022 186.623C47.1739 183.493 34.4761 182.401 33.0413 181.746C31.3196 181.018 31.3196 180.946 31.75 173.957C32.3239 164.785 33.2565 161.582 35.5522 160.709C36.7 160.272 47.2457 160.199 63.6739 160.636C86.4152 161.146 139 160.563 147.035 159.69C150.98 159.253 159.876 159.908 161.383 160.709ZM27.3022 164.858C27.9478 165.513 27.9478 166.532 27.3022 169.226C25.15 177.961 21.7783 181.601 16.613 180.727C11.95 179.926 10.5152 178.252 10.1565 173.157C9.72609 167.551 10.3717 165.222 12.3804 164.348C14.6043 163.402 26.2261 163.766 27.3022 164.858Z" fill="#231F20" fill-opacity="0.01"/>
<path d="M181.039 78.0875C187.567 78.4514 191.872 80.2713 194.813 83.7654C196.965 86.3132 201.7 96.1404 202.848 100.435C203.493 102.837 203.422 103.129 201.987 103.493C201.198 103.711 194.885 103.929 188.07 103.929C176.376 103.929 175.443 103.857 171.283 102.037C164.396 99.125 155.93 98.5426 131.611 99.4889C111.38 100.29 90.1457 101.746 75.7261 103.274C71.8522 103.711 68.5522 103.857 68.4087 103.711C68.1935 103.565 72.3543 102.182 77.5196 100.654C89.2848 97.3051 97.0326 94.3205 117.98 85.2941C131.037 79.6889 135.485 78.0874 139.143 77.7235C143.878 77.2139 170.78 77.5051 181.039 78.0875Z" fill="#FFEC00"/>
<path d="M214.47 124.894C214.47 125.258 213.824 127.442 213.035 129.698C209.95 138.943 207.296 151.901 206.22 163.111C205.646 169.444 204.928 174.976 204.713 175.34C203.852 176.796 201.485 173.521 200.122 168.862C199.333 166.241 198.328 163.693 197.898 163.184C197.539 162.747 195.53 162.165 193.45 161.873C189.217 161.364 171.713 162.31 170.996 163.111C170.709 163.402 171.857 166.532 173.435 170.099C175.085 173.666 176.448 177.16 176.448 177.888C176.448 180.29 174.08 177.16 168.843 167.915C165.4 161.801 163.32 158.889 162.1 158.379C160.88 157.87 151.626 157.943 134.48 158.525C99.9022 159.762 94.8804 159.762 93.8761 158.743C91.6522 156.487 96.1 155.977 143.448 152.701C195.459 149.135 198.687 148.843 199.978 147.824C201.557 146.66 202.848 146.587 174.224 148.334C126.374 151.173 118.339 151.464 97.5348 151.537C78.5956 151.61 73.8609 151.318 52.3391 149.207C39.1391 147.824 28.163 146.587 27.9478 146.368C27.7326 146.15 36.1261 146.15 46.6 146.441C102.987 147.824 104.35 147.824 132.328 146.223C147.322 145.422 166.691 144.403 175.372 143.966C199.261 142.874 199.835 142.801 201.843 140.035C202.776 138.798 204.426 135.959 205.574 133.775C208.3 128.534 214.47 122.419 214.47 124.894Z" fill="#FFEC00"/>
<path d="M198.257 122.783C198.902 123.729 197.18 135.813 196.248 137.051C195.387 138.288 175.946 141.127 161.67 142.219C155.213 142.656 154.926 142.656 152.774 140.763C150.048 138.507 149.474 138.507 131.611 140.035C124.007 140.69 102.413 141.418 79.2413 141.855C57.5761 142.219 38.063 142.729 35.9826 142.947C32.6826 143.311 10.8022 142.073 10.2283 141.491C10.013 141.273 11.95 129.917 12.5957 127.733C13.2413 125.622 14.8913 126.35 17.1152 129.553C22.7826 137.924 25.0783 139.598 30.3152 139.598C34.9783 139.598 38.4935 137.633 42.2957 132.829C44.0174 130.572 46.0261 128.607 46.7435 128.461C47.4609 128.243 51.3348 128.388 55.4239 128.752C84.3348 131.227 102.485 131.009 138.211 127.587C148.541 126.568 159.087 125.768 161.67 125.768C166.333 125.768 166.404 125.84 167.337 128.097C168.843 131.664 173.722 136.396 176.448 136.905C184.841 138.652 189.002 136.032 193.235 126.277C194.526 123.22 195.387 122.128 196.463 122.128C197.252 122.128 198.041 122.419 198.257 122.783Z" fill="#FFEC00"/>
<path d="M190.15 123.584C191.872 124.603 191.872 126.277 190.078 129.262C187.209 134.066 179.461 135.886 174.941 132.829C172 130.863 169.274 126.204 170.422 125.04C171.928 123.511 187.783 122.346 190.15 123.584Z" fill="#FFEC00"/>
<path d="M161.383 160.709C163.32 161.801 164.826 165.004 167.265 173.084C169.633 181.018 169.489 181.31 163.678 182.11C150.909 183.785 96.6022 187.133 90.0022 186.623C47.1739 183.493 34.4761 182.401 33.0413 181.746C31.3196 181.018 31.3196 180.946 31.75 173.957C32.3239 164.785 33.2565 161.582 35.5522 160.709C36.7 160.272 47.2457 160.199 63.6739 160.636C86.4152 161.146 139 160.563 147.035 159.69C150.98 159.253 159.876 159.908 161.383 160.709Z" fill="#FFEC00"/>
<path d="M27.3022 164.858C27.9478 165.513 27.9478 166.532 27.3022 169.226C25.15 177.961 21.7783 181.601 16.613 180.727C11.95 179.926 10.5152 178.252 10.1565 173.157C9.72609 167.551 10.3717 165.222 12.3804 164.348C14.6043 163.402 26.2261 163.766 27.3022 164.858Z" fill="#FFEC00"/>
<path d="M36.3413 127.66C40 128.097 40.0717 128.243 39.713 130.062C37.9196 137.997 25.8674 138.871 21.9935 131.373C21.2761 129.917 20.8457 128.388 21.1326 127.951C21.6348 127.151 30.5304 127.005 36.3413 127.66Z" fill="#FFEC00"/>
<path d="M136.591 5.75073C137.093 6.47867 132.789 17.1794 130.924 20.0912C129.92 21.6926 129.274 21.8382 124.754 21.8382C119.876 21.8382 119.733 21.7654 120.163 20.164C121.526 15.7963 125.83 6.40588 126.907 5.82353C128.413 4.95 136.089 4.8772 136.591 5.75073Z" fill="#FFEC00"/>
<path d="M159.548 5.0228C160.409 6.40588 154.67 20.0912 152.948 20.7463C151.011 21.4743 142.761 22.1294 142.761 21.4743C142.761 20.2368 147.998 7.57059 149.002 6.40588C149.576 5.75073 150.939 5.0228 152.015 4.87721C155.674 4.29486 159.189 4.36765 159.548 5.0228Z" fill="#FFEC00"/>
<path d="M182.576 5.0228C182.935 5.67795 178.702 17.2522 177.196 19.6544C176.693 20.4552 174.828 20.8191 170.38 21.0375C167.009 21.1103 164.283 21.1103 164.283 20.8919C164.283 19.436 170.237 5.0956 170.954 4.80441C172.533 4.14926 182.146 4.36765 182.576 5.0228Z" fill="#FFEC00"/>
<path d="M256.037 8.37132C259.911 12.5934 279.137 35.014 285.45 42.7301L288.535 46.4426L289.109 56.925C289.467 62.603 290.257 90.5559 290.902 119.018C291.476 147.408 292.193 175.725 292.409 181.767L292.839 192.904H285.665C280.787 192.904 278.276 192.613 277.774 191.958C277.272 191.376 276.626 172.231 275.837 138.673C275.263 109.846 274.402 78.9816 274.115 70.1007C273.47 54.814 273.398 53.7949 271.82 51.5382C269.022 47.6074 257.615 34.286 251.159 27.4434L245.133 21.1103H216.222C197.713 21.1103 187.239 20.8191 187.239 20.3824C187.239 19.2904 192.835 6.40588 193.696 5.53235C194.413 4.80441 227.27 3.71249 244.2 3.93088L251.948 4.00368L256.037 8.37132Z" fill="#FFEC00"/>
<path d="M204.457 27.6618C204.887 28.5353 205.174 30.064 205.03 31.1559C204.887 32.6846 204.385 33.1941 202.735 33.3397C200.726 33.6309 200.726 33.5581 201.228 30.4279C202.017 25.6963 203.022 24.8956 204.457 27.6618Z" fill="#FFEC00"/>
<path d="M217.657 43.4581C218.087 46.3698 218.015 46.5882 216.365 46.5882C212.993 46.5882 212.276 43.1669 215.002 40.3279C216.437 38.8721 217.083 39.6728 217.657 43.4581Z" fill="#FFEC00"/>
<path d="M207.685 45.8603C207.685 48.6265 207.47 49.136 206.25 49.136C205.174 49.136 204.743 48.5537 204.6 46.7338C204.313 43.4581 204.887 42.075 206.393 42.3662C207.398 42.5846 207.685 43.3125 207.685 45.8603Z" fill="#FFEC00"/>
<path d="M214.787 24.4588C215.002 25.114 215.217 26.7154 215.217 28.1713C215.217 30.3551 215.002 30.6463 213.639 30.4279C212.348 30.2824 211.917 29.6272 211.774 27.8074C211.63 26.4243 211.702 24.8956 211.917 24.3132C212.42 22.9301 214.213 23.0029 214.787 24.4588Z" fill="#FFEC00"/>
<path d="M227.7 27.8074C228.202 30.5007 228.13 30.5735 225.907 30.5735C223.683 30.5735 223.611 30.5735 224.113 27.5162C224.4 25.9147 224.759 24.2404 225.046 23.8037C225.691 22.7118 227.198 24.8956 227.7 27.8074Z" fill="#FFEC00"/>
<path d="M226.409 38.3625L226.911 41.4926H224.543C222.248 41.4926 222.248 41.4198 222.607 38.8721C223.109 35.9603 224.472 33.8493 225.333 34.7228C225.62 35.014 226.122 36.6882 226.409 38.3625Z" fill="#FFEC00"/>
<path d="M231.717 39.3088C232.937 41.711 232.363 44.7684 230.641 44.7684C229.565 44.7684 229.135 44.186 228.991 42.3662C228.561 38.0713 230.139 36.3243 231.717 39.3088Z" fill="#FFEC00"/>
<path d="M220.096 51.8294C221.243 52.9941 221.243 57.5074 220.024 57.5074C218.446 57.5074 217.37 55.8331 217.37 53.3581C217.37 50.8831 218.517 50.2279 220.096 51.8294Z" fill="#FFEC00"/>
<path d="M217.657 63.4765C219.235 65.7331 219.091 67.4801 217.37 68.4265C215.217 69.5912 214.5 68.7177 214.5 65.0779C214.5 61.4382 215.791 60.7831 217.657 63.4765Z" fill="#FFEC00"/>
<path d="M211.917 55.9059C212.635 58.5993 211.774 60.2007 209.909 59.4728C209.12 59.1816 208.761 58.0897 208.761 56.0515C208.761 53.5765 208.976 53.0669 209.98 53.2853C210.698 53.4309 211.559 54.5956 211.917 55.9059Z" fill="#FFEC00"/>
<path d="M197.785 60.2735C199.363 61.2926 200.152 64.5684 199.076 65.5147C197.426 66.8978 195.489 66.0971 195.274 63.8404C194.843 60.3463 195.776 58.9632 197.785 60.2735Z" fill="#FFEC00"/>
<path d="M198.215 51.9022C199.076 54.6684 198.43 56.0515 196.135 56.0515C194.413 56.0515 194.27 55.8331 194.7 53.7949C194.915 52.5574 195.13 51.0287 195.13 50.4463C195.13 48.6265 197.498 49.7184 198.215 51.9022Z" fill="#FFEC00"/>
<path d="M193.696 37.9985C193.696 38.5081 193.911 40.1823 194.126 41.6382C194.628 44.3316 194.557 44.4044 192.261 44.4044H189.965L190.467 41.2743C190.754 39.6 191.113 37.9985 191.328 37.6346C191.83 36.761 193.696 37.0522 193.696 37.9985Z" fill="#FFEC00"/>
<path d="M186.091 58.3809C186.665 60.5647 186.665 63.6949 186.091 64.2772C185.23 65.0779 182.935 63.3309 182.935 61.875C182.935 59.9823 184.226 56.7794 185.015 56.7794C185.374 56.7794 185.804 57.5074 186.091 58.3809Z" fill="#FFEC00"/>
<path d="M178.2 62.7485C178.415 63.6949 178.63 65.3691 178.63 66.461C178.63 68.2081 178.343 68.4993 177.052 68.2809C175.761 68.1353 175.33 67.4801 175.187 65.6603C174.828 61.9478 177.339 59.5456 178.2 62.7485Z" fill="#FFEC00"/>
<path d="M179.061 49.136C179.635 52.339 178.989 54.0132 177.411 53.7221C176.12 53.5037 175.259 49.7184 176.048 47.6074C176.765 45.6419 178.559 46.5154 179.061 49.136Z" fill="#FFEC00"/>
<path d="M184.728 42.2206C184.728 44.9868 184.513 45.4963 183.293 45.4963C182.217 45.4963 181.787 44.914 181.643 43.0941C181.357 39.8184 181.93 38.4353 183.437 38.7265C184.441 38.9449 184.728 39.6728 184.728 42.2206Z" fill="#FFEC01"/>
<path d="M194.27 29.4088C194.126 31.3015 193.696 31.7382 191.974 31.8838C189.965 32.175 189.965 32.1022 190.467 28.9721C191.185 24.75 191.472 24.4588 193.05 25.9147C193.983 26.7882 194.413 27.9529 194.27 29.4088Z" fill="#FCE900"/>
<path d="M178.272 33.1213C178.272 35.7419 178.057 36.0331 176.478 36.0331C174.828 36.0331 174.685 35.8147 174.9 33.4853C175.259 30.2823 175.617 29.7 177.052 29.9912C177.985 30.1368 178.272 31.0103 178.272 33.1213Z" fill="#FFEC00"/>
<path d="M184.943 26.7882C185.159 29.6272 185.015 29.8456 183.437 29.8456C181.07 29.8456 180.854 29.4088 181.715 26.1331C182.72 22.1294 184.657 22.4934 184.943 26.7882Z" fill="#FAE700"/>
<path d="M171.457 24.1676C171.457 24.6772 171.672 26.3515 171.959 27.8801C172.389 30.6463 172.317 30.7191 170.309 30.4279C168.659 30.2824 168.157 29.7728 168.013 28.2441C167.87 27.1522 168.157 25.6235 168.587 24.75C169.448 23.1485 171.457 22.7118 171.457 24.1676Z" fill="#FFEC00"/>
<path d="M173.537 38.1441C174.039 38.7265 174.326 40.3279 174.183 41.6382C173.967 43.6765 173.68 44.0404 171.887 44.2588C170.022 44.4772 169.878 44.3316 170.237 42.8029C170.524 41.8566 170.739 40.2551 170.739 39.0904C170.739 36.9066 172.174 36.4698 173.537 38.1441Z" fill="#FFED04"/>
<path d="M166.793 48.4081C166.793 50.8103 166.578 51.3199 165.359 51.3199C164.283 51.3199 163.852 50.7375 163.709 49.2816C163.35 46.4426 164.067 44.9868 165.502 45.2779C166.507 45.4235 166.793 46.2243 166.793 48.4081Z" fill="#FFEC00"/>
<path d="M166.004 60.5647C166.22 61.0743 166.507 62.603 166.722 63.9132C167.08 66.2426 167.009 66.3154 165.143 66.0971C163.637 65.9515 163.135 65.4419 162.991 63.8404C162.848 62.6757 162.92 61.2926 163.135 60.7103C163.637 59.4728 165.646 59.3272 166.004 60.5647Z" fill="#FFEC00"/>
<path d="M158.4 49.6456C158.902 50.1551 159.261 51.7566 159.261 53.3581C159.261 55.8331 159.117 56.1243 157.683 55.9059C156.248 55.6875 156.033 55.1779 155.817 52.1934C155.602 48.6265 156.535 47.7529 158.4 49.6456Z" fill="#FFEC00"/>
<path d="M151.37 63.3309C151.37 66.0971 147.639 67.2618 146.42 64.9324C145.774 63.6949 146.204 62.1662 148.213 58.8904C148.715 57.9441 151.37 61.6566 151.37 63.3309Z" fill="#FFEC00"/>
<path d="M143.048 54.0132C143.263 54.5228 143.55 56.0515 143.765 57.3618C144.124 59.6912 144.052 59.764 142.187 59.5456C140.68 59.4 140.178 58.8904 140.035 57.289C139.891 56.1243 139.963 54.7412 140.178 54.1588C140.68 52.9213 142.689 52.7757 143.048 54.0132Z" fill="#FFEC00"/>
<path d="M161.413 40.7647C161.413 41.8566 159.189 43.6765 157.754 43.6765C156.678 43.6765 156.391 43.1669 156.391 41.4199C156.391 40.1824 156.75 38.5081 157.18 37.6346C158.041 36.1059 158.041 36.1059 159.691 38.1441C160.624 39.236 161.413 40.4007 161.413 40.7647Z" fill="#FFEC00"/>
<path d="M166.793 32.9029C166.937 33.4125 167.224 35.0868 167.511 36.5426C167.941 39.236 167.87 39.3088 165.646 39.3088C163.422 39.3088 163.35 39.3088 163.852 36.2515C164.139 34.65 164.498 32.9757 164.713 32.6118C165.287 31.7382 166.435 31.8838 166.793 32.9029Z" fill="#FFEC00"/>
<path d="M151.657 40.4735C151.872 41.1287 152.087 42.7301 152.087 44.186C152.087 46.3699 151.872 46.661 150.509 46.4426C149.217 46.2971 148.787 45.6419 148.643 43.8221C148.5 42.439 148.572 40.9103 148.787 40.3279C149.289 38.9449 151.083 39.0176 151.657 40.4735Z" fill="#FFEC00"/>
<path d="M143.478 40.7647C144.77 43.2397 144.124 46.1515 142.259 46.4426C140.752 46.661 140.609 46.3698 140.609 43.4581C140.609 39.0904 141.972 37.853 143.478 40.7647Z" fill="#FFEC00"/>
<path d="M136.52 36.9066C136.735 37.2706 137.093 38.8721 137.38 40.5463L137.883 43.6765H135.587H133.291L133.793 40.5463C134.367 37.125 134.654 36.3971 135.587 36.3971C135.946 36.3971 136.376 36.6154 136.52 36.9066Z" fill="#FFEC00"/>
<path d="M156.033 24.1676C156.176 24.6772 156.463 26.3515 156.75 27.8801C157.18 30.5735 157.109 30.6463 155.172 30.4279C153.45 30.2824 153.163 29.8456 152.948 27.8074C152.661 24.5316 155.172 21.5471 156.033 24.1676Z" fill="#FFEC00"/>
<path d="M146.563 33.7037C147.424 36.3971 146.778 37.8529 144.554 37.8529C142.546 37.8529 142.259 36.4698 143.478 33.1213C144.339 30.7919 145.702 31.0831 146.563 33.7037Z" fill="#FFEC00"/>
<path d="M140.68 27.5162C141.254 30.2823 139.963 32.4662 138.17 31.811C135.946 30.9375 137.165 24.1676 139.461 24.9684C139.891 25.114 140.393 26.2787 140.68 27.5162Z" fill="#FFEC00"/>
<path d="M129.346 32.539C129.561 32.9029 129.92 34.5044 130.207 36.1787L130.709 39.3088H128.413C126.046 39.3088 126.046 39.3088 126.548 36.2515C126.835 34.65 127.193 32.9757 127.409 32.6118C127.839 31.8838 128.915 31.811 129.346 32.539Z" fill="#FFEC00"/>
<path d="M123.678 41.6382C123.893 42.5845 124.109 44.2588 124.109 45.3507C124.109 47.0978 123.822 47.389 122.53 47.1706C121.239 47.025 120.809 46.3699 120.665 44.55C120.522 43.1669 120.593 41.6382 120.809 41.0559C121.383 39.4544 123.176 39.8184 123.678 41.6382Z" fill="#FFEC00"/>
<path d="M129.417 64.2772C131.211 66.7522 130.35 68.6449 127.337 69.0088C125.4 69.3 125.328 69.2272 125.759 66.461C126.046 64.9324 126.261 63.2581 126.261 62.7485C126.261 61.2926 127.767 62.0206 129.417 64.2772Z" fill="#FFEC00"/>
<path d="M138.6 63.3309C139.317 66.6794 138.815 67.8441 136.878 67.5529C135.587 67.4074 135.157 66.7522 135.013 64.9324C134.726 61.7294 135.3 60.2735 136.807 60.5647C137.524 60.7103 138.241 61.8022 138.6 63.3309Z" fill="#FFEC00"/>
<path d="M130.493 47.6074C130.996 48.1897 131.283 49.5728 131.139 50.7375C130.996 52.339 130.493 52.8485 128.843 52.9941C126.835 53.2853 126.835 53.2125 127.337 50.4463C128.054 46.2971 128.843 45.5691 130.493 47.6074Z" fill="#FFEC00"/>
<path d="M112.272 63.7677C112.272 66.0971 112.057 66.6066 110.837 66.6066C109.689 66.6066 109.402 66.1699 109.546 64.4956C109.904 59.5456 112.272 58.8904 112.272 63.7677Z" fill="#FFEC00"/>
<path d="M118.943 52.7757C118.8 54.3772 118.298 55.0324 117.15 55.1779C114.639 55.5419 113.85 53.1397 115.643 50.2279C117.007 47.8257 117.15 47.8257 118.154 49.136C118.657 49.9368 119.087 51.5382 118.943 52.7757Z" fill="#FFEC00"/>
<path d="M109.402 53.2125C109.402 55.9059 109.187 56.4154 107.967 56.4154C106.891 56.4154 106.461 55.8331 106.317 54.0132C106.03 51.4654 107.25 49.2816 108.613 49.7184C109.043 49.864 109.402 51.4654 109.402 53.2125Z" fill="#FFEC00"/>
<path d="M118.8 38.1441C119.446 40.8375 118.872 42.5846 117.293 42.5846C116.217 42.5846 115.787 42.0022 115.643 40.5463C115.5 39.3816 115.572 37.9985 115.787 37.4162C116.433 35.7419 118.298 36.2515 118.8 38.1441Z" fill="#FFEC00"/>
<path d="M123.104 26.4971C123.822 29.4816 123.176 31.6654 121.598 31.6654C120.522 31.6654 120.091 31.0831 119.948 29.2632C119.804 27.8801 119.876 26.3515 120.091 25.7691C120.737 24.1676 122.602 24.6044 123.104 26.4971Z" fill="#FFED0C"/>
<path d="M207.757 71.775L209.12 74.3956L207.47 75.7787C204.098 78.4721 201.515 74.5412 204.17 70.7559C205.676 68.5721 206.178 68.7177 207.757 71.775Z" fill="#FFEC00"/>
<path d="M225.476 75.4875C226.265 75.9971 225.404 77.089 223.037 78.2537C221.459 79.1272 220.598 79.2 219.522 78.6176C218.087 77.8169 217.585 75.7059 218.589 74.6868C219.091 74.1772 224.328 74.7596 225.476 75.4875Z" fill="#FFEC00"/>
<path d="M211.63 79.564C211.63 84.0044 208.115 86.7706 205.891 84.0772C204.528 82.4029 205.604 79.7824 208.187 78.4721C211.487 76.7978 211.63 76.8706 211.63 79.564Z" fill="#FFEC00"/>
<path d="M228.776 68.3537C230.354 69.3728 228.489 71.3382 225.907 71.3382C223.683 71.3382 222.75 70.3919 223.396 68.7904C223.826 67.5529 227.198 67.3346 228.776 68.3537Z" fill="#FFEC00"/>
<path d="M241.617 67.8441C242.765 69.0088 241.402 70.6103 239.178 70.6103C237.313 70.6103 236.452 69.5912 237.026 68.0625C237.457 66.7522 240.398 66.6066 241.617 67.8441Z" fill="#FFEC00"/>
<path d="M249.939 75.7059C251.015 76.7978 249.58 77.8897 247.141 77.8897C244.559 77.8897 243.554 77.0162 244.2 75.3419C244.487 74.5412 245.204 74.3956 246.926 74.6868C248.217 74.9779 249.58 75.4147 249.939 75.7059Z" fill="#FFEC00"/>
<path d="M254.674 68.6449C254.674 70.1735 253.096 71.3382 251.015 71.3382C248.791 71.3382 247.859 70.3919 248.504 68.7904C249.007 67.4073 254.674 67.2618 254.674 68.6449Z" fill="#FFEC00"/>
<path d="M266.726 67.4073C268.807 67.9897 268.735 69.7368 266.583 70.3191C263.857 70.9743 262.207 70.3919 261.991 68.5721C261.704 66.8978 263.211 66.461 266.726 67.4073Z" fill="#FFEC00"/>
<path d="M261.489 74.9779C261.489 76.725 255.822 76.5066 255.535 74.7596C255.32 73.5949 255.678 73.4493 258.404 73.6676C260.557 73.8132 261.489 74.1772 261.489 74.9779Z" fill="#FFEC00"/>
<path d="M240.685 79.3456C242.335 80.0007 242.478 80.2919 241.761 81.1654C240.757 82.4029 237.026 82.6213 236.38 81.5294C235.663 80.3647 236.524 78.6176 237.743 78.6176C238.317 78.6176 239.68 78.9816 240.685 79.3456Z" fill="#FFEC00"/>
<path d="M230.211 82.9125C231.072 83.4949 231.072 83.786 230.354 84.7324C229.278 86.0426 226.337 86.261 225.62 85.1691C224.257 82.9125 227.7 81.311 230.211 82.9125Z" fill="#FFEC00"/>
<path d="M242.478 86.989C243.698 88.5176 242.765 89.5368 239.967 89.5368C237.385 89.5368 236.38 88.6632 237.026 86.989C237.528 85.6059 241.33 85.6059 242.478 86.989Z" fill="#FFEC00"/>
<path d="M258.046 81.2382C258.333 82.039 254.746 83.7132 252.809 83.7132C251.733 83.7132 251.446 81.4566 252.307 80.5103C253.096 79.7096 257.759 80.2919 258.046 81.2382Z" fill="#FFEC00"/>
<path d="M261.489 89.0272C263.283 90.4103 262.207 91.7206 259.265 91.7206C257.113 91.7206 256.826 91.5022 256.826 89.9007C256.826 88.5176 257.185 88.0809 258.476 88.0809C259.409 88.0809 260.7 88.5176 261.489 89.0272Z" fill="#FFEC00"/>
<path d="M254.315 86.8434C256.109 88.2265 255.104 89.5368 252.163 89.5368C249.58 89.5368 248.576 88.6632 249.222 86.989C249.724 85.6059 252.522 85.6059 254.315 86.8434Z" fill="#FFEC01"/>
<path d="M267.157 83.4221C269.811 84.4412 267.587 86.5522 263.857 86.625C262.565 86.625 262.063 84.4412 263.067 83.4949C263.641 82.8397 265.65 82.8397 267.157 83.4221Z" fill="#F9E600"/>
<path d="M268.95 98.1993C270.528 99.2184 268.663 101.184 266.08 101.184C263.857 101.184 262.924 100.238 263.57 98.636C264 97.3985 267.372 97.1801 268.95 98.1993Z" fill="#FFEC00"/>
<path d="M254.53 94.05C255.75 95.2875 254.243 96.8162 251.733 96.8162C249.509 96.8162 248.576 95.8699 249.222 94.2684C249.652 92.9581 253.311 92.8125 254.53 94.05Z" fill="#FFEC00"/>
<path d="M246.496 99.0728C247.141 100.237 246.065 100.965 243.052 101.548C240.685 101.985 240.326 101.912 240.326 100.674C240.326 99.8735 240.541 99 240.828 98.7816C241.617 97.9809 245.922 98.1993 246.496 99.0728Z" fill="#FFEC00"/>
<path d="M237.026 106.716C238.748 107.371 238.389 109.118 236.452 109.628C233.726 110.283 232.076 109.701 231.861 107.881C231.646 106.498 231.933 106.279 233.726 106.279C234.946 106.279 236.38 106.498 237.026 106.716Z" fill="#FFEC00"/>
<path d="M256.826 101.548C258.046 103.004 257.113 104.096 254.674 104.096C252.378 104.096 251.446 103.149 252.091 101.548C252.593 100.165 255.678 100.165 256.826 101.548Z" fill="#FFEC00"/>
<path d="M261.417 108.463C262.35 109.41 261.346 110.429 259.193 110.865C256.467 111.375 255.391 110.793 255.391 108.682C255.391 106.935 255.535 106.862 258.117 107.371C259.552 107.59 261.059 108.099 261.417 108.463Z" fill="#FFEC00"/>
<path d="M249.293 105.042C251.087 106.425 250.083 107.735 247.213 107.735C244.415 107.735 243.985 107.371 244.415 105.479C244.846 103.877 247.285 103.659 249.293 105.042Z" fill="#FFEC00"/>
<path d="M244.846 111.157C245.778 112.03 243.77 113.559 241.689 113.559C239.609 113.559 238.533 112.613 239.25 111.375C239.752 110.574 244.128 110.356 244.846 111.157Z" fill="#FFEC00"/>
<path d="M257.257 114.36C257.902 115.524 256.826 116.252 253.813 116.835C251.446 117.271 251.087 117.199 251.087 115.961C251.087 115.16 251.302 114.287 251.589 114.068C252.378 113.268 256.683 113.486 257.257 114.36Z" fill="#FFEC00"/>
<path d="M269.452 112.249C270.098 113.268 267.802 115.015 265.722 115.015C263.857 115.015 262.996 113.996 263.57 112.467C264.072 111.157 268.735 111.011 269.452 112.249Z" fill="#FFEC00"/>
<path d="M262.996 118.218C264.789 119.601 263.498 121.057 260.7 120.693C259.193 120.547 258.548 120.038 258.404 118.8C258.189 117.562 258.476 117.199 259.839 117.199C260.772 117.199 262.207 117.635 262.996 118.218Z" fill="#FFEC00"/>
<path d="M269.739 124.769C269.739 126.079 269.309 126.371 266.367 127.026C264.359 127.463 264 127.317 264 126.079C264 124.187 264.574 123.75 267.372 123.75C268.95 123.75 269.739 124.114 269.739 124.769Z" fill="#FFEC00"/>
<path d="M268.017 132.631C268.735 133.723 266.296 135.397 263.857 135.397C262.422 135.397 261.848 135.033 261.848 134.087C261.848 133.359 262.063 132.485 262.35 132.267C263.139 131.466 267.443 131.685 268.017 132.631Z" fill="#FFEC00"/>
<path d="M263.57 139.765C264.646 140.857 263.211 141.949 260.772 141.949C258.117 141.949 257.328 141.221 257.974 139.401C258.333 138.527 258.978 138.382 260.7 138.746C261.92 138.964 263.211 139.474 263.57 139.765Z" fill="#FFEC00"/>
<path d="M269.38 146.316C269.38 147.699 264.933 149.01 263.857 147.918C263.426 147.481 263.283 146.607 263.57 145.952C264.143 144.424 269.38 144.715 269.38 146.316Z" fill="#FFEC00"/>
<path d="M255.75 145.661C256.683 146.607 255.535 147.554 252.665 148.136C250.943 148.5 250.298 148.354 249.939 147.481C249.078 145.224 250.154 144.132 252.665 144.569C253.957 144.86 255.32 145.37 255.75 145.661Z" fill="#FFEC00"/>
<path d="M249.58 138.236C250.441 138.818 250.441 139.11 249.724 140.056C248.648 141.366 245.707 141.585 244.989 140.493C243.626 138.236 247.07 136.635 249.58 138.236Z" fill="#FFEC00"/>
<path d="M244.63 133.14C244.63 134.087 243.913 134.596 242.407 134.96C239.752 135.47 238.891 135.033 238.891 133.14C238.891 131.976 239.393 131.757 241.761 131.757C244.057 131.757 244.63 132.049 244.63 133.14Z" fill="#FFEC00"/>
<path d="M237.098 125.424C238.891 126.807 237.887 128.118 234.946 128.118C232.363 128.118 231.359 127.244 232.004 125.57C232.507 124.187 235.304 124.187 237.098 125.424Z" fill="#FFEC00"/>
<path d="M236.596 117.708C236.309 119.382 232.722 120.693 231.646 119.601C230.139 118.072 231.502 116.471 234.228 116.471C236.309 116.471 236.811 116.689 236.596 117.708Z" fill="#FFEC00"/>
<path d="M247.859 125.424C249.652 126.807 248.648 128.118 245.707 128.118C243.124 128.118 242.12 127.244 242.765 125.57C243.267 124.187 246.065 124.187 247.859 125.424Z" fill="#FFEC00"/>
<path d="M255.678 124.478C256.754 125.57 255.32 126.662 252.952 126.662C250.154 126.662 249.724 126.298 250.154 124.478C250.441 123.386 250.943 123.168 252.809 123.532C254.028 123.75 255.32 124.187 255.678 124.478Z" fill="#FFEC00"/>
<path d="M249.652 117.562C250.943 119.164 249.652 120.256 247.07 119.965C245.563 119.819 244.917 119.31 244.774 118.072C244.559 116.762 244.846 116.471 246.639 116.471C247.787 116.471 249.15 116.98 249.652 117.562Z" fill="#FFEC00"/>
<path d="M256.754 132.412C258.333 133.432 256.467 135.397 253.885 135.397C251.661 135.397 250.728 134.451 251.374 132.849C251.804 131.612 255.176 131.393 256.754 132.412Z" fill="#FFEC00"/>
<path fill-rule="evenodd" clip-rule="evenodd" d="M179.491 72.0662C193.552 73.0125 194.341 73.3037 198.502 79.1272C200.367 81.7478 203.38 85.8971 205.174 88.3721L208.474 92.8125L214.93 92.5941C220.67 92.3757 222.033 92.5941 226.767 94.4868L226.768 94.4872C229.709 95.6517 232.65 96.8162 233.367 97.0346C236.596 98.1993 234.3 99.5824 221.53 104.096C217.657 105.479 214.5 106.935 214.5 107.371C214.5 108.39 227.628 135.179 229.063 137.144C229.924 138.309 230.211 138.382 231.502 137.508C232.793 136.707 233.296 136.78 234.946 137.872C237.17 139.401 236.452 140.857 233.08 141.585C231 142.094 231 142.094 231 147.626C231 150.684 230.57 156.143 229.996 159.783C229.422 163.35 228.561 169.465 228.13 173.25C227.7 177.035 226.983 181.403 226.624 182.932C225.763 186.353 221.674 191.085 217.8 193.05L214.859 194.579L126.62 194.433C78.1239 194.288 31.063 193.996 22.0957 193.705C6.2413 193.268 5.81087 193.196 4.01739 191.521L2.15217 189.774V170.775C2.15217 160.293 2.51087 148.937 2.86957 145.515C3.80217 137.508 6.52826 127.754 9.75652 121.057C13.5587 113.049 16.8587 110.865 31.8522 106.643L36.013 105.479L35.6543 102.858C35.3674 101.402 35.5109 99.6551 35.8696 99C36.9457 96.9618 40.8913 95.7243 46.3435 95.7243C50.6478 95.7243 51.8674 96.0154 54.3065 97.6897L57.1761 99.5824L66.7891 89.8279C76.9044 79.4912 81.137 76.1426 85.2978 74.9779C89.0283 74.0316 107.107 72.0662 118.728 71.3382C130.135 70.6103 164.785 71.0471 179.491 72.0662ZM43.5 109L38.5 110C38.5 110 28.5 112 23.5 114C18.5 116 13.5 123.5 13 124.5C10.7831 128.934 9 134.5 8.5 139.5C7.5 147.5 7 152.5 7 160.5C7 171 7 177 8 187.5C8.5 189.5 8.5 190.5 9.3 191C10 191.5 10 191.5 11.1602 191.678C14.5 192 15.5155 191.955 19.5 191.9C20 191.8 22.5 192 22.5 191.678C18.9043 191 16.5 190.8 14 190.3C12.5 190 11.5 190 10.8 189.6C10.8 189.6 10 189 10.7 188.8C14.7 188.1 19 188.5 22.5 188.5C25 188.5 35 189 41 189.5C52 190 58 190.5 69 190.5C83 191 90.5 191 104.5 191C112 191 115.5 191 123 190.5C127 190.5 133 190 136.5 189.5C140.5 189 156.613 187.672 169.5 186.5C176.5 186 202.5 183.5 207.5 182.5C208.5 182 209.5 181.5 210 180C211 175.5 213 158 214 149L216 134C216 131.5 217 129 217.5 127.5C218 126.5 218.5 126.5 219 126.5C219 126.5 219.5 126.5 220 128.5L220.5 130.5C220.5 131 221 132 221.5 133.14C222 134 223 136.5 223.5 137C224.566 139.148 224.5 138.5 226.231 142.5C227 143.5 228 147 229.385 149C229.5 149 229.5 148 229.385 147.626C228.5 143.5 228 140.5 226.231 137.144C225 133.5 223.5 131.094 221.7 128C218.5 122.5 216.428 119.326 212.7 114C212 113 211 111.5 210 111.5C209.127 111.5 208 112.5 208 112.5L206.5 113.5C206.5 113.5 202.755 115.872 202.5 116C201.5 116.5 201.5 116 202 115L203 113.5L205 110.5C205.5 110 206.5 108.5 207 106.5C207.5 105 207 102 206.5 100.5C206 99.5 205.5 97.5 205 96.5L202 90.5C202 90 199.5 85 196.5 81.5C196.5 81.5 194.955 79.1272 192 77.5C191.5 77 188.5 76.5 188 76.5L171.5 75.5L144.5 75L124 75.5C124 75.5 117 76 111 76.5L102.5 77.5L92 79C89.5 79.5 87 80 86 80.5L82.5 82.5C78.79 86.0147 73.7301 90.894 73 91.5C72.2699 92.106 62.5 101 62 101.5C61.5 102 58.5 104.5 56 106C53.5 107.5 43.5 109 43.5 109Z" fill="#FFEC00"/>
</svg>
