<svg width="70" height="70" viewBox="0 0 70 70" fill="none" xmlns="http://www.w3.org/2000/svg">
<path d="M32.5333 0.0332565C32.2729 0.060379 31.4644 0.155304 30.7518 0.223099C26.2294 0.711273 21.2275 2.39274 17.1848 4.77934C12.0458 7.81682 7.86609 11.9527 4.7964 17.0378C2.3982 20.9973 0.808536 25.6078 0.164448 30.4624C-0.054816 32.1303 -0.054816 37.2018 0.164448 38.8697C1.28818 47.3177 5.04307 54.464 11.4017 60.3084C14.9099 63.5493 19.2815 66.0715 24.0368 67.6174C27.7917 68.8513 30.7655 69.2988 35 69.2988C38.1245 69.2988 39.5086 69.1768 42.2631 68.6208C51.7052 66.7088 60.1331 60.7152 65.2036 52.2943C67.6018 48.3347 69.1915 43.7243 69.8355 38.8697C70.0548 37.2018 70.0548 32.1303 69.8355 30.4624C69.1915 25.6078 67.6018 20.9973 65.2036 17.0378C62.1339 11.9527 57.9542 7.81682 52.8152 4.77934C48.8547 2.43342 44.1269 0.833313 39.3853 0.223099C38.1793 0.060379 33.3829 -0.0616608 32.5333 0.0332565ZM38.6316 2.94871C49.3344 4.04708 59.1327 10.895 63.9702 20.6312C66.204 25.1197 67.2181 29.5403 67.2181 34.666C67.2181 35.9678 67.1496 37.5815 67.0673 38.2595C66.1629 45.7312 62.8876 52.2943 57.4334 57.5286C52.2259 62.5458 45.881 65.5426 38.6316 66.3969C37.0419 66.5868 32.9581 66.5868 31.3684 66.3969C24.119 65.5426 17.7741 62.5458 12.5666 57.5286C7.11237 52.2943 3.83712 45.7312 2.93265 38.2595C2.7408 36.6865 2.7408 32.6456 2.93265 31.0726C3.79601 23.9264 6.81088 17.648 11.8403 12.5087C18.9389 5.2675 28.381 1.89101 38.6316 2.94871Z" fill="#4C71F3"/>
<path d="M33.1498 5.86423C22.5566 6.66429 13.5257 12.685 8.78409 22.1229C6.85183 25.974 5.90625 30.0963 5.90625 34.6661C5.90625 36.3747 5.97477 37.6765 6.13922 38.7342C7.1122 45.0532 9.90782 50.5316 14.4438 55.0064C18.9662 59.4949 24.5026 62.2612 30.8886 63.2239C33.0265 63.5494 36.9732 63.5494 39.111 63.2239C45.4834 62.2612 51.0335 59.4949 55.5558 55.0064C60.0918 50.5316 62.8875 45.0532 63.8604 38.7342C64.1893 36.6188 64.1893 32.7135 63.8604 30.5981C62.8875 24.2926 60.0918 18.8007 55.5558 14.3258C51.0746 9.87806 45.4149 7.04398 39.2481 6.13544C37.768 5.91848 34.3694 5.76931 33.1498 5.86423ZM39.714 9.02377C46.7442 10.2984 53.0069 14.4207 57.0359 20.4279C57.7896 21.567 59.3929 24.5502 59.3929 24.8485C59.3929 24.9435 58.79 24.835 57.7896 24.5366C43.1948 20.333 26.8048 20.333 12.2101 24.5366C11.2097 24.835 10.6067 24.9435 10.6067 24.8485C10.6067 24.5502 12.2101 21.567 12.9638 20.4279C16.2939 15.4649 21.0492 11.8307 26.6404 9.97298C28.326 9.41701 29.5319 9.13225 31.5053 8.83392C33.3554 8.54916 37.631 8.64408 39.714 9.02377ZM38.2203 24.2248C42.5918 24.4146 45.456 24.7265 49.4575 25.4587C52.6643 26.0418 53.8017 26.313 53.9388 26.53C54.021 26.6927 56.0492 35.1001 56.2684 36.1984C56.2958 36.3883 56.0081 36.5646 54.898 37.0392C47.4979 40.1987 41.6189 46.4228 38.9192 53.9216L38.4532 55.2098H34.9998H31.5464L31.0805 53.9216C28.3945 46.4228 22.4881 40.1987 15.1016 37.0392C13.9916 36.5646 13.7038 36.3883 13.7312 36.1984C13.9505 35.0729 15.9787 26.6927 16.0746 26.53C16.1294 26.4215 16.3898 26.2859 16.6502 26.2317C22.1044 25.0519 26.6815 24.4282 31.4368 24.2248C34.8491 24.0892 34.9724 24.0892 38.2203 24.2248ZM12.9364 27.3165C12.9364 27.4657 11.0041 35.534 10.963 35.5747C10.9493 35.6018 10.4286 35.5069 9.81189 35.3848L8.68816 35.1543V34.0559C8.68816 32.7677 8.86631 31.1269 9.19521 29.4861L9.41447 28.2928L11.0727 27.764C12.9501 27.1673 12.9364 27.1673 12.9364 27.3165ZM58.9955 27.7911L60.5852 28.2928L60.8045 29.4861C61.1333 31.1269 61.3115 32.7677 61.3115 34.0559V35.1543L60.1878 35.3848C59.5711 35.5069 59.0503 35.6018 59.0366 35.5747C58.9818 35.534 57.0633 27.4657 57.0633 27.3029C57.0633 27.2351 57.1455 27.208 57.2414 27.2487C57.3236 27.2758 58.1185 27.5335 58.9955 27.7911ZM11.8401 38.8156C16.5405 40.3614 20.2269 42.8023 23.5707 46.572C25.8867 49.1891 27.8738 52.8233 28.9016 56.2947C29.3127 57.6914 29.7375 59.983 29.6279 60.1051C29.5182 60.2136 27.2708 59.6034 25.7633 59.0609C25.0918 58.8169 23.8996 58.3016 23.1185 57.9083C15.6361 54.1115 10.4834 47.1958 9.03076 39.019L8.86631 38.0291L9.42818 38.1104C9.72966 38.1647 10.826 38.4765 11.8401 38.8156ZM60.9552 39.0325C59.1874 49.1213 51.705 57.2032 41.7422 59.8474C41.0296 60.0237 40.4266 60.1458 40.3718 60.1051C40.2622 59.983 40.687 57.6914 41.0981 56.2947C42.2904 52.213 44.3871 48.6467 47.4156 45.5143C50.6361 42.192 54.3225 39.941 58.7077 38.6121C61.2978 37.8392 61.1745 37.8121 60.9552 39.0325ZM37.7269 58.288C37.7269 58.4643 37.6447 59.0609 37.5625 59.6169L37.398 60.6339H34.9998H32.6016L32.4372 59.6169C32.355 59.0609 32.2727 58.4643 32.2727 58.288L32.259 57.9897H34.9998H37.7406L37.7269 58.288Z" fill="#4C71F3"/>
<path d="M32.972 27.0724C28.5594 28.2522 26.0652 32.7813 27.4493 37.1206C28.1757 39.3851 30.2587 41.4327 32.602 42.1649C33.945 42.5853 36.0554 42.5853 37.3984 42.1649C39.7692 41.4327 41.8385 39.3851 42.5785 37.0392C43.0034 35.7103 43.0034 33.622 42.5785 32.2931C41.8385 29.9743 39.7829 27.9132 37.4807 27.1945C36.1651 26.7741 34.2465 26.7199 32.972 27.0724ZM36.8777 29.9472C40.2763 31.1812 41.2219 35.6696 38.6181 38.246C36.6173 40.2258 33.3832 40.2258 31.3824 38.246C29.3816 36.2663 29.3816 33.066 31.3824 31.0863C32.835 29.6489 34.8906 29.2149 36.8777 29.9472Z" fill="#4C71F3"/>
</svg>
