<svg width="70" height="70" viewBox="0 0 70 70" fill="none" xmlns="http://www.w3.org/2000/svg">
<path d="M27.9616 0.0934792C25.578 0.531078 22.8517 1.66559 20.9666 3.0108C19.6891 3.91842 17.7261 5.8633 16.7446 7.20851C15.6852 8.65096 14.361 11.5035 13.8781 13.3835C13.5976 14.4532 13.4418 15.5229 13.3795 16.9005C13.2705 19.0885 13.3016 19.0561 12.0397 19.0561C9.76515 19.0561 6.35332 20.6444 4.18781 22.6865C2.52084 24.2586 0.947341 26.9815 0.308595 29.4288C-0.127622 31.0819 -0.0964638 34.7934 0.370911 36.4466C1.7263 41.3412 5.5432 45.1985 10.0923 46.3006C10.918 46.4951 10.9803 46.5438 11.0738 47.0786C11.2296 47.9214 11.9151 48.5535 12.6785 48.5535C13.4418 48.5535 14.1896 47.97 14.3454 47.2569L14.4545 46.7707H16.8848L19.3308 46.7869L19.6424 47.4676C19.8916 48.0024 20.0786 48.1969 20.5615 48.359C21.0912 48.5373 21.2314 48.5211 21.73 48.2779C22.0571 48.0997 22.4154 47.7431 22.6024 47.3865L22.914 46.7707H25.3755C27.6656 46.7707 27.8214 46.7869 27.8214 47.0786C27.8214 47.5324 28.3978 48.1807 28.9743 48.3914C29.7532 48.6507 30.5166 48.2779 30.9373 47.4352L31.2488 46.7707H33.6325H36.0161L36.2809 47.3865C36.5925 48.1159 37.1222 48.4562 37.8856 48.44C38.5243 48.4238 39.2721 47.7917 39.4123 47.1596L39.5058 46.7707H41.9985C44.3198 46.7707 44.4911 46.7869 44.4911 47.0786C44.4911 47.5486 45.0676 48.1807 45.6596 48.3914C46.423 48.6507 47.2642 48.2131 47.6537 47.3703L47.9497 46.7707L50.3801 46.8031C52.7325 46.8517 52.826 46.8679 52.8727 47.192C52.9506 47.7593 53.7452 48.4238 54.3683 48.44C55.1785 48.4562 55.6614 48.1159 56.0509 47.2245C56.3469 46.5438 56.4715 46.4141 57.0168 46.2682C59.4783 45.6199 61.4257 44.6799 63.264 43.2537C68.7947 38.9749 71.225 31.6006 69.4022 24.7287C68.9504 22.9945 67.7197 20.4499 66.6136 18.9264C64.3857 15.847 61.1453 13.5942 57.4219 12.5407C56.269 12.2166 55.7549 12.168 53.3713 12.1842C50.8319 12.1842 50.5514 12.2166 49.2428 12.638C48.4794 12.8973 47.7472 13.108 47.6381 13.1242C47.5135 13.1242 47.2331 12.5731 46.9371 11.7628C44.8806 6.10641 40.5496 1.97353 35.019 0.401417C34.0842 0.142101 33.2586 0.044857 31.2488 0.0124397C29.8311 -0.0199738 28.3511 0.0124397 27.9616 0.0934792ZM32.9625 3.51323C35.7045 3.96704 38.462 5.37708 40.4717 7.35437C42.9176 9.75306 44.2419 12.5083 44.8806 16.4629C45.0208 17.3057 45.161 18.0188 45.1922 18.0512C45.2078 18.0836 45.8621 17.7757 46.6099 17.3867C49.4921 15.8956 51.642 15.3608 54.2125 15.5391C58.9642 15.8632 63.0927 18.7319 65.2114 23.189C66.3643 25.5876 66.5357 26.4304 66.5201 29.5098C66.5201 31.9733 66.4889 32.184 66.0216 33.6427C65.3205 35.8307 64.3234 37.5163 62.7344 39.1694C61.1453 40.8064 59.5406 41.8436 57.4219 42.6054L55.9418 43.124L33.9285 43.1726C9.3601 43.2212 10.918 43.2861 8.67461 42.0705C2.59873 38.7804 1.41472 30.3364 6.32216 25.377C8.72135 22.9458 11.6502 22.0869 15.4048 22.7027C16.3396 22.8486 17.1185 22.9458 17.1497 22.9134C17.1808 22.881 17.0718 22.022 16.9004 21.001C16.0747 16.1063 17.3055 11.5521 20.4057 8.0837C23.615 4.48567 28.4134 2.73528 32.9625 3.51323Z" fill="#4C71F3"/>
<path d="M18.9878 50.3686C18.24 50.709 18.0998 50.9359 17.6635 52.427C17.3831 53.4318 17.2896 54.6312 17.461 55.2146C17.5077 55.3605 17.8349 55.6036 18.1777 55.7657C18.7852 56.0574 18.8164 56.0574 19.5019 55.7171C20.2653 55.3281 20.4366 55.0201 20.904 53.2698C21.1065 52.508 21.1377 52.1028 21.0286 51.5194C20.904 50.8387 20.8105 50.6928 20.2653 50.4011C19.6421 50.0607 19.6421 50.0607 18.9878 50.3686Z" fill="#4C71F3"/>
<path d="M35.58 50.4335C34.8633 50.8063 34.8322 50.8711 34.4427 52.1677C34.0688 53.4805 33.9597 54.5826 34.1467 55.1174C34.209 55.2633 34.5362 55.5226 34.8789 55.7009L35.5021 56.0413L36.2499 55.6685C36.9977 55.3119 37.0133 55.2795 37.3872 53.9991C37.8701 52.3136 37.8701 52.3298 37.7455 51.4546C37.6364 50.7901 37.5585 50.6928 36.9665 50.3849L36.2966 50.0445L35.58 50.4335Z" fill="#4C71F3"/>
<path d="M52.2496 50.4335C51.5486 50.8062 51.5174 50.8549 51.1279 52.1839C50.4736 54.4043 50.5982 55.2633 51.6576 55.7657C52.2964 56.0574 52.2964 56.0574 52.9818 55.7171C53.6517 55.3767 53.6829 55.3281 54.1191 53.8532C54.5242 52.5404 54.5709 52.2001 54.4463 51.5518C54.3684 51.1142 54.2905 50.7576 54.2593 50.7414C54.2438 50.709 53.9477 50.5469 53.605 50.3686L52.9818 50.0445L52.2496 50.4335Z" fill="#4C71F3"/>
<path d="M9.82687 52.9617C9.48413 53.1562 9.15697 53.3831 9.07907 53.4804C9.01675 53.5776 8.68959 54.5825 8.34685 55.7008C7.87947 57.208 7.73926 57.8726 7.81716 58.2939C7.97295 59.1367 8.11316 59.3312 8.78307 59.6392C9.37507 59.9147 9.40623 59.9147 10.0294 59.5905C10.8239 59.1691 10.8863 59.0395 11.5406 56.7056C11.9456 55.2794 12.0547 54.6635 11.9768 54.1124C11.8989 53.4641 11.821 53.3669 11.1667 53.0103L10.45 52.6376L9.82687 52.9617Z" fill="#4C71F3"/>
<path d="M26.3105 53.0429C25.7496 53.3346 25.625 53.6101 24.8772 56.2033C24.6279 57.0623 24.441 57.8889 24.4721 58.0671C24.5033 58.2292 24.5656 58.5534 24.6279 58.7965C24.6903 59.1206 24.9084 59.3475 25.3602 59.5906C25.9677 59.9148 26.0145 59.9148 26.5909 59.6555C26.9181 59.4934 27.292 59.2503 27.4166 59.1044C27.5412 58.9586 27.884 57.9537 28.2111 56.8516C28.9278 54.307 28.8811 53.5777 27.9619 53.0915C27.2608 52.7025 26.9804 52.7025 26.3105 53.0429Z" fill="#4C71F3"/>
<path d="M43.0582 53.0266C42.7155 53.1724 42.435 53.448 42.326 53.7073C41.9521 54.7121 41.1731 57.5808 41.1887 57.8726C41.251 58.9585 41.3912 59.2502 42.03 59.5906L42.6687 59.9309L43.4165 59.5743C44.2578 59.153 44.2578 59.153 44.9744 56.6084C45.6132 54.307 45.5353 53.5614 44.6473 53.0914C43.9306 52.7024 43.8216 52.7024 43.0582 53.0266Z" fill="#4C71F3"/>
<path d="M16.5109 57.9374C16.1058 58.1967 15.9344 58.5047 15.6073 59.5257C15.0932 61.1303 15.0932 61.6813 15.5917 62.2972C16.0902 62.9131 16.7134 63.0752 17.43 62.751C18.0688 62.4755 18.3025 62.0703 18.7854 60.4496C19.0814 59.3799 19.097 59.234 18.8789 58.7154C18.6452 58.0995 17.9597 57.6295 17.3521 57.6295C17.1496 57.6295 16.7757 57.7754 16.5109 57.9374Z" fill="#4C71F3"/>
<path d="M33.2737 57.8726C32.8063 58.1319 32.6193 58.4723 32.1831 59.8013C31.7469 61.1303 31.7781 61.7299 32.3077 62.3296C32.8998 63.0103 33.6476 63.1238 34.3642 62.6213C34.816 62.3134 34.9874 62.0217 35.3457 60.8709C35.7196 59.6716 35.7663 59.4123 35.6105 58.8774C35.3145 57.8402 34.1773 57.3539 33.2737 57.8726Z" fill="#4C71F3"/>
<path d="M50.1773 57.7753C50.0059 57.8563 49.7411 58.067 49.5697 58.2453C49.1958 58.6829 48.5415 60.5791 48.5415 61.2436C48.5415 62.7023 50.3798 63.4965 51.3146 62.443C51.6573 62.0702 52.4363 59.9309 52.4363 59.3798C52.4363 58.2453 51.1744 57.3539 50.1773 57.7753Z" fill="#4C71F3"/>
<path d="M6.32204 64.4042C5.85467 64.6311 5.71445 64.858 5.35613 65.8953C4.7797 67.5808 4.79528 68.0671 5.44961 68.7478C5.88582 69.2016 6.10393 69.2988 6.63362 69.2988C7.56837 69.2988 8.03575 68.7478 8.48755 67.0946C8.83029 65.8305 8.83029 65.7494 8.58102 65.1984C8.33175 64.6635 7.58395 64.1125 7.06984 64.1125C6.96079 64.1125 6.61805 64.2421 6.32204 64.4042Z" fill="#4C71F3"/>
<path d="M23.0542 64.3718C22.509 64.6473 22.3532 64.9066 21.9014 66.2843C21.4496 67.6619 21.4963 68.0995 22.1195 68.7478C22.5401 69.1854 22.7738 69.2988 23.2568 69.2988C24.3317 69.2988 24.7524 68.7802 25.2509 66.8191C25.5158 65.7818 25.5158 65.6846 25.2821 65.1497C25.1107 64.777 24.8147 64.5015 24.472 64.3394C23.802 64.0476 23.6618 64.0639 23.0542 64.3718Z" fill="#4C71F3"/>
<path d="M39.8798 64.2745C39.6928 64.3394 39.4124 64.5987 39.2255 64.8256C38.7892 65.4253 38.2128 67.435 38.3375 68.0184C38.4777 68.6992 39.241 69.2988 39.9733 69.2988C40.908 69.2988 41.4065 68.7478 41.8116 67.2891C41.9986 66.6246 42.1544 65.9601 42.1544 65.8142C42.1544 65.2956 41.6558 64.5663 41.1417 64.3394C40.5341 64.0801 40.3472 64.0801 39.8798 64.2745Z" fill="#4C71F3"/>
</svg>
