<svg width="70" height="70" viewBox="0 0 70 70" fill="none" xmlns="http://www.w3.org/2000/svg">
<g clip-path="url(#clip0_463_316)">
<path d="M19.3641 11.0706C16.2674 11.5576 13.437 13.475 11.8011 16.1913C11.4359 16.7923 11.1011 17.5456 9.20652 21.8902L8.27065 24.0434H5.09782C1.35435 24.0434 1.36956 24.0434 0.669563 24.7282C-0.24348 25.6413 -0.235871 26.8587 0.684781 27.7869C1.27826 28.3728 1.56739 28.4565 3.15 28.4565H4.375L4.10869 28.6619C3.65978 28.9967 2.56413 30.138 2.15326 30.6934C1.06522 32.1619 0.380433 33.8206 0.114129 35.6695C0.00760688 36.3695 -1.82353e-06 37.2597 0.0152156 41.7717C0.0456503 47.6152 0.0228243 47.2956 0.555433 48.5434C0.859781 49.2434 1.225 49.8065 1.78043 50.4152L2.19891 50.8793L2.22174 53.3826C2.25978 56.1826 2.275 56.2891 2.82282 57.438C3.75869 59.4087 5.46304 60.7326 7.59348 61.1434C8.40761 61.2956 13.4978 61.2956 14.3196 61.1358C16.7848 60.6641 18.6946 58.9065 19.4478 56.4108C19.638 55.7945 19.6533 55.5967 19.6913 54.113L19.7217 52.5H28.9891H38.2565L38.7054 53.1619C39.0402 53.6717 39.8011 54.4934 41.8859 56.6087C43.4 58.138 44.9902 59.7587 45.4239 60.2228C52.5304 67.6869 52.3022 67.4587 52.7891 67.6413C53.1163 67.7706 53.3446 67.801 53.7174 67.7782C54.4174 67.7402 54.8206 67.5119 55.5587 66.7358C55.9011 66.3782 56.4717 65.7695 56.8293 65.3967C57.788 64.3923 60.3978 61.6608 62.0109 59.9565C62.7793 59.1423 64.438 57.438 65.6859 56.1826C68.1207 53.7173 68.4326 53.3597 68.9576 52.3554C69.7413 50.8717 70 49.7837 70 48.0337C69.9924 46.063 69.612 44.7467 68.562 43.1413C68.212 42.601 67.1239 41.475 66.5152 41.0032C65.2141 40.0141 63.4793 39.413 61.9348 39.413H61.2652L61.2272 37.6021C61.1815 35.601 61.0978 34.9771 60.6793 33.7293C60.162 32.1771 59.3022 30.7771 58.138 29.5978C57.7348 29.1945 57.2859 28.7684 57.1413 28.6619L56.875 28.4565H58.1C59.6674 28.4565 59.9717 28.3728 60.5728 27.7717C61.4935 26.8587 61.4935 25.6413 60.5652 24.713C59.888 24.0434 59.9033 24.0434 56.1522 24.0434H52.9793L52.7815 23.6021C52.675 23.3663 52.3706 22.651 52.0967 22.0271C49.8598 16.8608 49.7456 16.625 48.9087 15.5141C47.4022 13.513 45.1956 11.976 42.9054 11.3369C41.513 10.9489 41.7337 10.9565 30.4728 10.9641C22.4304 10.9717 19.8283 10.9945 19.3641 11.0706ZM41.2011 15.438C42.5935 15.7271 43.6054 16.2826 44.6706 17.3402C45.0663 17.7434 45.538 18.2913 45.7054 18.55C45.8804 18.8163 46.3826 19.8663 46.8239 20.8706C47.2652 21.8826 47.95 23.4652 48.3533 24.3858C48.7565 25.3065 49.1065 26.1054 49.1293 26.151C49.1598 26.2271 45.4315 26.25 30.625 26.25C15.8185 26.25 12.0902 26.2271 12.1207 26.151C12.1435 26.1054 12.4783 25.3369 12.8587 24.4619C13.2467 23.5793 13.9011 22.0728 14.3196 21.1141C15.5141 18.3521 15.712 18.0097 16.6022 17.15C17.5609 16.2217 18.5043 15.7119 19.7826 15.4456C20.3913 15.3163 21.0685 15.301 30.4728 15.301C39.9913 15.2934 40.5543 15.301 41.2011 15.438ZM51.8456 30.8152C54.5467 31.5 56.525 33.775 56.8293 36.5369C56.875 36.9478 56.913 38.1119 56.913 39.1391C56.913 40.9956 56.913 41.0032 56.7456 41.0945C56.6467 41.1478 55.9011 41.8478 55.0793 42.6543L53.5956 44.1304L52.15 42.7C51.3587 41.9163 50.4913 41.1173 50.2174 40.9271C49.1598 40.1815 48.163 39.7478 46.9609 39.5195C46.2989 39.3902 44.8076 39.3826 44.1609 39.4967C42.6315 39.763 41.1326 40.5086 40.0065 41.5587L39.6489 41.8934L38.9413 41.201C38.3326 40.6076 38.1196 40.4554 37.4348 40.1206C36.0043 39.4206 36.2859 39.451 30.5109 39.451C25.8087 39.451 25.413 39.4587 24.9185 39.5956C23.0467 40.0902 21.4793 41.4065 20.7337 43.1032C20.6348 43.3163 20.1402 44.351 19.6304 45.3934C19.1283 46.4358 18.6185 47.4858 18.512 47.7293L18.3141 48.1706L12.2196 48.1478L6.125 48.125L5.70652 47.9271C5.18152 47.6837 4.82391 47.326 4.58804 46.8163L4.40543 46.4282L4.42826 41.1478L4.45108 35.875L4.62608 35.3423C4.86956 34.6119 5.40217 33.638 5.87391 33.0369C6.65761 32.063 8.08804 31.1423 9.35869 30.8152C9.91413 30.6782 10.4239 30.6706 30.587 30.6706C50.9554 30.663 51.2522 30.6706 51.8456 30.8152ZM35.1293 43.8641C35.6772 44.0239 36.0576 44.4195 36.5141 45.2793C36.7272 45.6826 36.9783 46.1467 37.0696 46.3141C37.237 46.6032 37.2446 46.6641 37.1761 47.3945L37.1076 48.163H30.1533C26.288 48.163 23.2065 48.1326 23.2065 48.0945C23.2065 48.0641 23.3815 47.676 23.5946 47.2423C23.8076 46.8087 24.188 46.025 24.4391 45.5C24.6826 44.9826 24.9413 44.488 25.0174 44.4119C25.2 44.1989 25.6565 43.925 25.9533 43.8337C26.1054 43.7956 27.9772 43.7576 30.4804 43.7576C34.0641 43.75 34.8022 43.7652 35.1293 43.8641ZM46.3598 43.8641C47.2804 44.1 47.463 44.2445 49.9511 46.725C52.4011 49.1597 52.5913 49.3043 53.3141 49.426C53.7174 49.4869 54.3565 49.3423 54.737 49.0989C54.8967 48.9923 56.0304 47.9119 57.2554 46.6869C59.1576 44.7847 59.5533 44.4271 60.0022 44.1913C61.5239 43.4 63.0837 43.6739 64.3772 44.9673C65.2598 45.85 65.663 46.8163 65.663 48.0489C65.663 49.0304 65.3815 49.9587 64.8489 50.7347C64.7272 50.9173 63.5859 52.1119 62.3076 53.3978C61.037 54.6837 59.6141 56.1293 59.1576 56.6087C56.9054 58.9673 53.7174 62.3228 53.6413 62.4065C53.6185 62.4369 53.0859 61.9271 52.462 61.2652C51.1685 59.9032 48.8859 57.4989 47.7065 56.2663C47.2652 55.8021 45.9261 54.4326 44.7239 53.2228C43.5217 52.0054 42.4793 50.9326 42.4033 50.826C41.3989 49.4869 41.262 47.5771 42.0533 45.9717C42.3272 45.4163 43.2783 44.4423 43.8109 44.176C44.6402 43.7576 45.538 43.651 46.3598 43.8641ZM15.2935 53.7782C15.2935 54.7521 15.263 55.1478 15.1717 55.4141C15.0043 55.901 14.4793 56.4717 13.9848 56.6923C13.5815 56.875 13.5587 56.875 10.9185 56.875H8.25543L7.875 56.6847C7.39565 56.4489 6.95435 56.0076 6.74891 55.551C6.60435 55.2467 6.58152 55.0413 6.55869 53.8467L6.52826 52.5H10.9109H15.2935V53.7782Z" fill="#4C71F3"/>
<path d="M7.76847 37.4424C7.04565 37.8 6.54347 38.5989 6.54347 39.375C6.54347 40.1511 7.04565 40.95 7.76847 41.3076L8.24021 41.5435H11.9685C14.5174 41.5435 15.788 41.513 15.9783 41.4598C16.138 41.4065 16.4348 41.2467 16.6326 41.0945C17.7435 40.2576 17.7435 38.4848 16.6402 37.6554C16.4348 37.5032 16.138 37.3435 15.9783 37.2902C15.788 37.2369 14.5174 37.2065 11.9685 37.2065H8.24021L7.76847 37.4424Z" fill="#4C71F3"/>
</g>
<defs>
<clipPath id="clip0_463_316">
<rect width="70" height="70" fill="white"/>
</clipPath>
</defs>
</svg>
