<svg width="70" height="70" viewBox="0 0 70 70" fill="none" xmlns="http://www.w3.org/2000/svg">
<path d="M33.6506 0.203728C32.3265 0.809364 31.4072 2.5331 31.3904 4.45483C31.3819 6.51633 32.2169 8.18183 33.6169 8.88064L34.0976 9.11358L32.3096 13.8306C31.3229 16.4278 29.2988 21.797 27.7976 25.7686C26.2964 29.7402 24.8964 33.4206 24.694 33.9563L24.3145 34.9347L20.6795 29.9498C18.6723 27.2128 16.5807 24.3593 16.0325 23.6023L15.0289 22.2396L15.4253 21.6922C16.0325 20.8886 16.2771 20.0616 16.2771 18.8387C16.2771 17.9536 16.2434 17.7556 15.9988 17.0684C15.3494 15.2282 13.941 14.3896 12.5157 14.9952C11.9843 15.2165 11.8325 15.3447 11.3855 15.9619C10.6855 16.9286 10.4663 17.6973 10.5169 19.0134C10.5506 19.7938 10.6012 20.0616 10.8373 20.6789C11.2843 21.8553 12.1108 22.6589 12.9542 22.7754C13.3084 22.8219 13.3675 22.8685 13.3675 23.0782C13.3675 23.381 11.2759 41.0959 11.2337 41.1541C11.2084 41.1891 9.60602 39.2207 5.45663 34.0146L3.74458 31.8716L4.1241 31.2892C5.01807 29.9149 4.98434 27.9815 4.05663 26.6887C2.89277 25.0814 0.995181 25.4891 0.227711 27.504C0.0421687 28.0048 0 28.2494 0 29.0297C0 29.845 0.0337349 30.043 0.253012 30.5788C0.640964 31.5687 1.29036 32.186 2.06627 32.3141L2.47952 32.384L2.53012 32.978C2.55542 33.3041 2.69036 35.7966 2.8253 38.5219C3.21325 46.0691 3.4241 49.9941 3.44096 50.0057C3.4747 50.0407 8.85542 50.6347 10.6687 50.8094C19.1867 51.613 26.6337 51.9624 35.8855 51.9624C43.7542 51.9624 47.794 51.811 54.3133 51.2636C58.5807 50.9142 65.3024 50.1222 65.412 49.9591C65.4373 49.9126 65.6229 48.0374 65.8169 45.8012C66.0108 43.5534 66.3398 39.7565 66.5506 37.3572C66.7614 34.958 66.947 32.8848 66.9639 32.7567C66.9976 32.5587 67.0735 32.5238 67.5711 32.5121C69.6458 32.4655 70.7169 29.053 69.3169 26.9915C68.7855 26.1995 68.2964 25.8967 67.5542 25.8967C66.559 25.9084 65.8422 26.5024 65.412 27.7136C65.041 28.7269 65.041 29.6936 65.412 30.7069L65.6735 31.429L65.4373 31.6852C65.3024 31.825 63.3373 33.9796 61.0602 36.4604C57.6193 40.234 56.9193 40.9445 56.8687 40.7698C56.8434 40.6533 56.759 39.8264 56.6831 38.9296C56.4639 36.2158 55.3759 23.579 55.3253 23.1946L55.2831 22.8219L55.7639 22.7521C56.7843 22.589 57.6952 21.6805 58.159 20.3761C58.3277 19.9219 58.3614 19.6423 58.3614 18.7222C58.3614 17.3829 58.1843 16.7772 57.5181 15.8571C56.9699 15.0884 56.3205 14.7274 55.494 14.7274C54.3301 14.7274 53.4108 15.5194 52.9048 16.9519C52.6518 17.6391 52.6265 17.8371 52.6265 18.7222C52.6265 19.6074 52.6602 19.8054 52.9048 20.4926C53.0566 20.9119 53.3265 21.4476 53.5205 21.6805C53.706 21.9251 53.8494 22.1464 53.8325 22.193C53.8157 22.2396 51.7494 25.1047 49.2361 28.5522L44.6566 34.8299L42.5566 28.9598C41.4096 25.7337 39.3349 19.9801 37.9602 16.1716C36.5855 12.3631 35.4723 9.19511 35.4892 9.13687C35.506 9.06699 35.7169 8.91558 35.9699 8.78747C36.6024 8.44971 37.3277 7.48302 37.6735 6.51633C37.9349 5.79422 37.9518 5.65446 37.9518 4.5713C37.9518 3.49979 37.9265 3.33673 37.6819 2.62627C37.1422 1.0423 36.088 0.0756111 34.8313 0.00572968C34.3253 -0.0175629 34.0301 0.0290222 33.6506 0.203728ZM35.9108 29.9032C36.8554 30.5671 37.7747 32.4306 38.1711 34.5037C38.441 35.948 38.4831 38.254 38.2554 39.7565C37.859 42.4003 37.0578 44.159 35.8602 45.0092C35.2361 45.4518 34.4349 45.4518 33.7518 45.0209C32.0145 43.9028 30.8928 39.873 31.2386 36.0062C31.5 33.1178 32.4446 30.7884 33.7181 29.9032C34.1904 29.5771 34.3 29.5422 34.8735 29.5771C35.3373 29.6121 35.6157 29.6936 35.9108 29.9032ZM19.406 38.2191C21 39.244 21.4133 42.0742 20.2325 43.8795C19.2964 45.312 17.6855 45.4285 16.6482 44.1357C16.0157 43.3554 15.7795 42.6449 15.7795 41.4919C15.7711 39.9778 16.2181 38.9529 17.1795 38.289C17.8626 37.8231 18.7482 37.7882 19.406 38.2191ZM51.159 38.7199C51.7157 39.0577 52.1205 39.6051 52.4157 40.4087C52.888 41.7132 52.7277 43.2505 52.0193 44.3454C51.3699 45.347 50.5265 45.7546 49.6325 45.4984C49.059 45.3353 48.7892 45.149 48.359 44.6132C46.9084 42.7963 47.4482 39.4187 49.3289 38.5685C49.7928 38.3589 50.6783 38.4287 51.159 38.7199ZM62.5277 41.7597C63 42.0742 63.3205 42.7264 63.3627 43.4602C63.3795 43.7979 63.3542 44.2755 63.3036 44.4968C63.1265 45.2305 62.3506 45.9759 61.7771 45.9759C61.4904 45.9759 61.0096 45.7197 60.7566 45.4285C59.9133 44.4385 60.0313 42.4935 60.9759 41.8063C61.5325 41.4103 61.9795 41.3987 62.5277 41.7597ZM7.5988 41.7714C7.79277 41.8879 8.05422 42.1907 8.18916 42.4353C8.40843 42.8313 8.43373 42.9594 8.43373 43.763C8.43373 44.5666 8.40843 44.6948 8.18916 45.0908C7.38795 46.5466 5.69277 46.0807 5.34699 44.3221C5.0012 42.5051 6.34217 40.9794 7.5988 41.7714Z" fill="#4C71F3"/>
<path d="M3.69397 53.5697C3.71928 54.2918 3.79518 56.2368 3.85421 57.8907C3.90482 59.5329 3.98072 60.9421 4.00602 61.012C4.13253 61.2799 12.4229 62.1301 19.1867 62.5727C25.5964 62.9803 27.5024 63.0386 35.7169 63.0386C44.7157 63.0386 48.7217 62.8872 55.241 62.2815C58.159 62.002 63.2783 61.3964 64.5687 61.1634L64.9566 61.0935L65.0578 58.3915C65.1084 56.9123 65.1759 54.944 65.2096 54.0239L65.2602 52.3468L64.8892 52.4283C64.3325 52.5331 60.3518 53.0456 58.4879 53.2552C43.712 54.8392 27.5193 54.8974 12.8614 53.4183C9.60602 53.0921 4.53735 52.4749 3.88795 52.3235L3.64337 52.2652L3.69397 53.5697ZM61.9205 55.6428C62.8482 56.2135 62.8651 58.0654 61.9458 58.6943C60.8494 59.463 59.7024 57.7043 60.3434 56.2485C60.5205 55.8525 61.0771 55.4099 61.3976 55.4099C61.4904 55.4099 61.7265 55.5147 61.9205 55.6428ZM8.20602 55.9922C8.56024 56.295 8.84699 57.1453 8.77952 57.6694C8.55181 59.3232 6.96626 59.6843 6.43494 58.2051C5.87831 56.691 7.15181 55.1071 8.20602 55.9922ZM53.8494 56.3999C54.4313 56.8191 54.6506 57.7276 54.3639 58.6011C53.9422 59.9172 52.6434 59.9638 52.1542 58.671C51.5976 57.2384 52.7867 55.6428 53.8494 56.3999ZM16.2181 56.691C17.0108 57.3549 17.0361 58.9156 16.2687 59.6144C15.9398 59.9056 15.2651 59.9056 14.9361 59.6144C13.9241 58.6943 14.3879 56.4581 15.6024 56.4581C15.7879 56.4581 16.0578 56.5629 16.2181 56.691ZM44.9771 57.0404C45.5337 57.518 45.7361 58.4846 45.4494 59.3232C45.2639 59.859 44.859 60.1851 44.3699 60.1851C43.6193 60.1851 43.1386 59.5562 43.1386 58.5545C43.1386 57.5878 43.6867 56.8075 44.3614 56.8075C44.547 56.8075 44.8169 56.9123 44.9771 57.0404ZM24.947 57.2035C25.8241 57.7043 26.0012 59.2068 25.3012 60.057C24.1711 61.4197 22.5855 59.3116 23.547 57.7276C23.9349 57.087 24.4325 56.9007 24.947 57.2035ZM35.388 57.4248C35.9783 57.9605 36.1217 59.0553 35.7084 59.8473C35.3711 60.4996 34.6458 60.7441 34.1145 60.3598C33.5325 59.9405 33.2795 58.671 33.6337 57.9256C34.0048 57.1569 34.8398 56.9123 35.388 57.4248Z" fill="#4C71F3"/>
<path d="M4.11568 64.8671C4.14941 65.6474 4.18315 66.2997 4.20001 66.3113C4.23375 66.3695 7.84339 66.9985 10.0783 67.3362C26.3386 69.8403 43.4422 69.9218 58.6145 67.5692C60.588 67.2663 64.6615 66.486 64.7289 66.4045C64.7627 66.3462 64.8723 63.5626 64.8386 63.5161C64.8217 63.5044 64.3916 63.551 63.8771 63.6325C59.0024 64.4012 51.4374 65.0767 43.7711 65.4378C40.1952 65.6008 29.1217 65.6008 25.6807 65.4378C18.4699 65.0884 12.7434 64.5876 6.89881 63.7956C5.49038 63.5976 4.28435 63.4462 4.20845 63.4462C4.08194 63.4462 4.07351 63.5859 4.11568 64.8671Z" fill="#4C71F3"/>
</svg>
