<svg width="50" height="50" viewBox="0 0 50 50" fill="none" xmlns="http://www.w3.org/2000/svg">
<path fill-rule="evenodd" clip-rule="evenodd" d="M9.6274 0.0841772C14.6914 5.10665 19.7275 10.1572 24.7356 15.2357C24.7947 15.3909 24.9066 15.433 25.0714 15.362C30.1635 10.2553 35.2554 5.14874 40.3475 0.0420897C40.4314 -0.0140299 40.5154 -0.0140299 40.5993 0.0420897C40.7075 0.19379 40.8474 0.291989 41.019 0.336702C43.9567 3.22671 46.8665 6.14478 49.7482 9.09091C49.8028 9.25379 49.8307 9.42214 49.8321 9.59596C49.7761 9.68014 49.7202 9.76431 49.6643 9.84849C44.796 14.6745 39.9558 19.5286 35.1436 24.4108C34.9757 24.5511 34.8078 24.6913 34.6399 24.8317C34.556 24.8317 34.4721 24.8317 34.3881 24.8317C34.4073 25.1593 34.5751 25.3557 34.8917 25.4209C39.9558 30.4434 44.9919 35.4939 50 40.5724C49.9517 40.7333 49.8678 40.8736 49.7482 40.9933C49.2725 41.4141 48.8249 41.8631 48.4052 42.3401C47.9296 42.7609 47.482 43.2099 47.0623 43.6869C46.5866 44.1077 46.139 44.5567 45.7193 45.0337C45.2437 45.4545 44.796 45.9035 44.3764 46.3805C43.9007 46.8013 43.4531 47.2503 43.0334 47.7273C42.5578 48.1482 42.1101 48.5971 41.6905 49.0741C41.4387 49.2705 41.2148 49.495 41.019 49.7475C40.9071 49.8317 40.7951 49.9158 40.6832 50C40.5433 50 40.4035 50 40.2636 50C40.1236 49.8878 39.9838 49.7755 39.8439 49.6633C35.0596 44.8373 30.2753 40.0112 25.4911 35.1852C25.4065 34.9446 25.2667 34.7342 25.0714 34.5539C24.9629 34.5126 24.8509 34.4986 24.7356 34.5118C24.7356 34.596 24.7356 34.6801 24.7356 34.7643C24.5398 34.9888 24.3439 35.2132 24.1481 35.4377C19.5596 39.9832 14.9992 44.5567 10.4667 49.1583C10.159 49.4388 9.85125 49.7194 9.54346 50C9.37014 49.9986 9.20227 49.9705 9.03985 49.9158C8.98387 49.8878 8.92797 49.8597 8.87198 49.8317C6.13009 47.0539 3.38828 44.2761 0.646381 41.4983C0.487912 41.2122 0.278075 40.9597 0.0168702 40.7407C-0.00956928 40.6222 0.018381 40.51 0.100805 40.404C5.22678 35.3056 10.3048 30.1709 15.335 25C15.3142 24.8979 15.2582 24.8418 15.1671 24.8317C15.0552 24.7475 14.9432 24.6633 14.8313 24.5791C9.90715 19.6128 4.98304 14.6465 0.0588375 9.68014C-0.00142762 9.54234 -0.0153608 9.40211 0.0168702 9.25926C3.08049 6.18687 6.1441 3.11448 9.20772 0.0420897C9.35016 0.00972433 9.49 0.0237563 9.6274 0.0841772Z" fill="#FD0100"/>
</svg>
