<svg width="84" height="80" viewBox="0 0 84 80" fill="none" xmlns="http://www.w3.org/2000/svg">
<path d="M47.6609 0.24189C44.8592 0.674133 42.5891 2.44944 42.1724 4.51804C42.0862 4.91942 42.0862 7.37396 42.158 10.8319L42.2874 16.4975L41.2241 18.6741C37.5316 26.2539 32.2443 34.868 30.4914 36.1647C30.046 36.4889 30.0172 36.4889 29.5862 36.2419C29.1695 35.9949 28.092 35.9795 16.0661 35.9795C3.76724 35.9795 2.94828 35.9949 2.31609 36.2573C1.48276 36.597 0.462643 37.7702 0.21839 38.6501C-0.0545983 39.6072 -0.0258626 76.6261 0.247126 77.3362C0.54885 78.0927 1.26724 78.9108 2.02873 79.3122L2.70402 79.6673H14.4138C27.3161 79.6673 26.7557 79.7136 27.8046 78.6947C28.6092 77.9229 28.8247 77.3671 28.9109 75.9623C28.9971 74.7891 29.0115 74.7273 29.3563 74.681C29.5575 74.6501 30.0029 74.8045 30.3621 75.0206C31.9569 75.9932 32.9626 76.5026 33.7529 76.7651C34.5575 77.0275 35.5488 77.0429 52.4885 77.0429C69.2701 77.0429 70.4483 77.0275 71.5977 76.7651C73.9253 76.2247 75.9081 75.0515 77.0287 73.5386C77.7328 72.597 78.4655 70.8834 78.7241 69.5558C78.9971 68.151 78.9253 65.6964 78.5661 64.5232L78.3218 63.7359L78.8678 62.9795C80.5057 60.6793 81.0661 57.4837 80.2759 54.9057L79.9023 53.7016L80.4483 52.9452C81.0948 52.0343 81.842 50.3362 82.0862 49.1939C82.3448 47.9897 82.2011 45.6278 81.7989 44.5163L81.4828 43.6364L82 42.9726C83.954 40.5335 84.3851 36.4735 83.0057 33.5558C82.5316 32.5524 81.3534 31.2865 80.4626 30.8234C78.954 30.0361 78.9971 30.0361 67.977 30.0361C62.3017 30.0361 57.6609 30.0206 57.6609 29.9897C57.6609 29.9743 57.9483 28.1064 58.2931 25.868C59.3707 18.844 59.4569 17.9949 59.2701 16.3277C59.069 14.5987 58.5661 12.422 57.8477 10.1527C57.2586 8.22302 55.5776 3.99318 55.0172 2.94344C54.2988 1.63126 52.3305 0.566078 50.046 0.24189C48.8391 0.0720749 48.6954 0.0720749 47.6609 0.24189ZM49.9741 3.9623C51.6839 4.30193 51.7988 4.39455 52.6034 6.2316C54.1408 9.70501 55.2471 13.2556 55.7069 16.1887L55.9511 17.6861L55.3621 21.8234C54.7299 26.223 53.5517 33.3705 53.408 33.6021C53.3649 33.6793 58.1925 33.741 65.2471 33.741C78.1638 33.741 77.9626 33.7256 79.0115 34.5901C80.75 36.0258 80.6494 39.4992 78.7816 41.6759C78.1925 42.3705 76.6839 43.3122 76.181 43.3122C75.9368 43.3122 75.6207 43.729 75.6207 44.0687C75.6207 44.1458 75.9655 44.3774 76.3822 44.5935C77.4023 45.0875 77.977 45.6587 78.3506 46.4923C78.6236 47.0789 78.6667 47.3723 78.6092 48.2985C78.4655 50.5832 77.1149 52.4048 74.9167 53.2693C74.2701 53.5318 74.0977 53.6707 74.069 53.964C74.0402 54.3036 74.1264 54.3808 74.7299 54.6124C75.6925 54.9829 76.569 55.94 76.842 56.9434C77.1293 57.9777 77.1149 58.3637 76.7701 59.5369C76.2385 61.3431 75.0316 62.6707 73.3649 63.3036C72.6466 63.5661 72.5316 63.6741 72.4885 64.0446C72.4454 64.3688 72.5029 64.4614 72.7184 64.4614C73.0345 64.4614 73.954 65.0944 74.342 65.5884C74.5 65.7736 74.7155 66.2985 74.8448 66.7616C75.5776 69.386 73.6236 72.3808 70.7213 73.091C70.319 73.199 63.8103 73.2608 52.4167 73.2608H34.7443L33.954 72.8594C33.523 72.6433 32.5172 72.0412 31.727 71.5163C30.319 70.5901 30.2615 70.5592 29.069 70.482L27.8477 70.4048L27.8046 56.4958L27.7759 42.5867L29.5431 41.3362C33.6667 38.4494 34.069 38.0018 37.3879 32.6759C41.5402 26.0223 45.4339 18.6278 45.6638 16.9915C45.7069 16.6518 45.6925 13.904 45.6207 10.8937C45.4914 5.44429 45.4914 5.41341 45.7931 5.05836C46.3391 4.39455 47.6034 3.86967 48.7672 3.80793C48.9684 3.79249 49.5144 3.86967 49.9741 3.9623ZM15.75 69.0464C16.5115 69.6175 17 70.621 17 71.5781C17 72.5352 16.842 72.952 16.1954 73.7239C14.9454 75.2059 12.7615 75.0052 11.6695 73.2916C11.181 72.5198 11.1092 71.0687 11.5259 70.2042C11.8276 69.5712 12.4741 68.9383 13.1207 68.645C13.7672 68.3517 15.1034 68.5524 15.75 69.0464Z" fill="#16701A"/>
</svg>
