<svg width="284" height="69" viewBox="0 0 284 69" fill="none" xmlns="http://www.w3.org/2000/svg">
<g clip-path="url(#clip0_463_99)">
<rect width="284" height="69" rx="30" fill="#123661"/>
<rect x="76" y="11" width="191" height="51" fill="white"/>
<path d="M-14 34.5V69H151H316V34.5V0H151H-14V34.5ZM159.5 14.5C162.7 14.5 162.5 17.5431 162.5 19C162.434 20.5431 162.778 24.1605 162.736 37.6862L162.672 56.2761L162.035 57.289C161.568 58.0486 161.08 58.4917 160.253 58.9138L159.128 59.5046H139.986C121.947 59.5046 120.823 59.4835 120.016 59.1037C118.955 58.6394 117.873 57.4367 117.576 56.4028C117.406 55.833 117.363 49.8615 117.406 36.4624C117.406 36.4624 117.439 18.1899 117.469 17.345C117.5 16.5 118.675 14.5 120.5 14.5C126.944 14.5 139.837 14.3486 139.837 14.3486C152.783 14.3486 152.5 14.5 159.5 14.5Z" fill="#123661"/>
<path d="M120.738 17.0286C119.528 17.7671 119.592 16.7543 119.528 36.3993C119.486 48.8488 119.528 54.7993 119.698 55.3268C119.825 55.7488 120.207 56.3396 120.568 56.635L121.226 57.1837H139.88C160.486 57.1837 159.425 57.247 160.104 55.8332C160.401 55.1791 160.444 53.3222 160.444 36.9479C160.444 21.713 160.401 18.6534 160.147 18.0415C159.531 16.6066 160.592 16.6699 139.922 16.6699C123.157 16.691 121.226 16.7121 120.738 17.0286ZM150.724 28.6974L155.138 37.2433V45.7259V54.2295H153.334H151.531V46.1268V38.024L147.732 30.6809L143.933 23.3167L134.405 23.2112L124.897 23.1057L124.833 21.5653L124.77 20.046L135.551 20.0882L146.331 20.1515L150.724 28.6974ZM130.691 31.8837C133.322 32.5589 134.787 33.7194 135.869 35.9983C136.124 36.5681 136.378 37.0745 136.399 37.1167C136.421 37.1378 136.654 37.0323 136.93 36.8424C137.609 36.357 140.219 36.3782 140.75 36.8635C141.259 37.3066 141.238 38.235 140.707 38.7204C140.368 39.0158 140.092 39.058 139.286 38.9525L138.288 38.8259L139.073 39.5222C139.498 39.9231 139.943 40.4928 140.071 40.8093C140.198 41.147 140.283 43.7846 140.283 47.3506C140.283 52.1827 140.219 53.3855 139.986 53.5754C139.795 53.7442 138.606 53.8075 136.23 53.7653L132.749 53.702L132.686 51.9506L132.622 50.2204H128.378H124.133L124.197 47.3084L124.26 44.4176L127.401 44.4809L130.521 44.5653V43.9112V43.2782L127.401 43.2148L124.26 43.1515L124.197 40.9782L124.133 38.8259H129.884C134.32 38.8259 135.614 38.7626 135.614 38.5515C135.614 38.4249 135.338 37.7286 135.02 37.0323C133.534 33.9304 131.943 33.1286 126.659 32.791L124.154 32.6433V31.9048V31.1662L126.637 31.3139C127.996 31.3983 129.821 31.6515 130.691 31.8837Z" fill="#123661"/>
<path d="M134.617 42.054L131.582 42.7081V43.8265V44.9448H134.001H136.442L137.291 43.7421C138.14 42.5815 138.458 41.3366 137.906 41.3788C137.758 41.3999 136.272 41.6953 134.617 42.054Z" fill="#123661"/>
<path d="M19.2017 46V27.8182H25.3452C26.7715 27.8182 27.9375 28.0756 28.843 28.5906C29.7545 29.0996 30.4292 29.7891 30.8672 30.6591C31.3052 31.5291 31.5241 32.4998 31.5241 33.571C31.5241 34.6423 31.3052 35.6159 30.8672 36.4918C30.4351 37.3678 29.7663 38.0662 28.8608 38.587C27.9553 39.1019 26.7952 39.3594 25.3807 39.3594H20.9773V37.4062H25.3097C26.2862 37.4062 27.0704 37.2376 27.6623 36.9002C28.2541 36.5629 28.6832 36.1071 28.9496 35.533C29.2218 34.953 29.358 34.299 29.358 33.571C29.358 32.843 29.2218 32.192 28.9496 31.6179C28.6832 31.0438 28.2512 30.594 27.6534 30.2685C27.0556 29.937 26.2625 29.7713 25.2741 29.7713H21.4034V46H19.2017ZM50.4118 36.9091C50.4118 38.8267 50.0655 40.4839 49.373 41.8807C48.6806 43.2775 47.7306 44.3546 46.5233 45.1122C45.3159 45.8698 43.9368 46.2486 42.3862 46.2486C40.8355 46.2486 39.4565 45.8698 38.2491 45.1122C37.0417 44.3546 36.0918 43.2775 35.3993 41.8807C34.7069 40.4839 34.3606 38.8267 34.3606 36.9091C34.3606 34.9915 34.7069 33.3343 35.3993 31.9375C36.0918 30.5407 37.0417 29.4635 38.2491 28.706C39.4565 27.9484 40.8355 27.5696 42.3862 27.5696C43.9368 27.5696 45.3159 27.9484 46.5233 28.706C47.7306 29.4635 48.6806 30.5407 49.373 31.9375C50.0655 33.3343 50.4118 34.9915 50.4118 36.9091ZM48.2811 36.9091C48.2811 35.3348 48.0177 34.006 47.4909 32.9229C46.9701 31.8398 46.2628 31.0201 45.3691 30.4638C44.4814 29.9074 43.487 29.6293 42.3862 29.6293C41.2853 29.6293 40.2881 29.9074 39.3944 30.4638C38.5066 31.0201 37.7993 31.8398 37.2725 32.9229C36.7517 34.006 36.4913 35.3348 36.4913 36.9091C36.4913 38.4834 36.7517 39.8121 37.2725 40.8952C37.7993 41.9783 38.5066 42.7981 39.3944 43.3544C40.2881 43.9107 41.2853 44.1889 42.3862 44.1889C43.487 44.1889 44.4814 43.9107 45.3691 43.3544C46.2628 42.7981 46.9701 41.9783 47.4909 40.8952C48.0177 39.8121 48.2811 38.4834 48.2811 36.9091ZM54.1138 46V27.8182H65.0868V29.7713H56.3155V35.4531H60.932C62.2341 35.4531 63.332 35.6662 64.2257 36.0923C65.1253 36.5185 65.8059 37.1192 66.2676 37.8945C66.7351 38.6699 66.9689 39.5843 66.9689 40.6378C66.9689 41.6913 66.7351 42.6205 66.2676 43.4254C65.8059 44.2304 65.1253 44.8607 64.2257 45.3164C63.332 45.7721 62.2341 46 60.932 46H54.1138ZM56.3155 44.0824H60.932C61.7606 44.0824 62.4619 43.9167 63.036 43.5852C63.6161 43.2479 64.054 42.8158 64.35 42.2891C64.6518 41.7564 64.8027 41.1941 64.8027 40.6023C64.8027 39.7322 64.4683 38.9835 63.7995 38.3562C63.1307 37.7229 62.1749 37.4062 60.932 37.4062H56.3155V44.0824ZM85.9342 36.9091C85.9342 38.8267 85.588 40.4839 84.8955 41.8807C84.203 43.2775 83.2531 44.3546 82.0457 45.1122C80.8383 45.8698 79.4593 46.2486 77.9086 46.2486C76.358 46.2486 74.979 45.8698 73.7716 45.1122C72.5642 44.3546 71.6143 43.2775 70.9218 41.8807C70.2293 40.4839 69.8831 38.8267 69.8831 36.9091C69.8831 34.9915 70.2293 33.3343 70.9218 31.9375C71.6143 30.5407 72.5642 29.4635 73.7716 28.706C74.979 27.9484 76.358 27.5696 77.9086 27.5696C79.4593 27.5696 80.8383 27.9484 82.0457 28.706C83.2531 29.4635 84.203 30.5407 84.8955 31.9375C85.588 33.3343 85.9342 34.9915 85.9342 36.9091ZM83.8035 36.9091C83.8035 35.3348 83.5402 34.006 83.0134 32.9229C82.4926 31.8398 81.7853 31.0201 80.8916 30.4638C80.0038 29.9074 79.0095 29.6293 77.9086 29.6293C76.8078 29.6293 75.8105 29.9074 74.9168 30.4638C74.029 31.0201 73.3218 31.8398 72.795 32.9229C72.2742 34.006 72.0138 35.3348 72.0138 36.9091C72.0138 38.4834 72.2742 39.8121 72.795 40.8952C73.3218 41.9783 74.029 42.7981 74.9168 43.3544C75.8105 43.9107 76.8078 44.1889 77.9086 44.1889C79.0095 44.1889 80.0038 43.9107 80.8916 43.3544C81.7853 42.7981 82.4926 41.9783 83.0134 40.8952C83.5402 39.8121 83.8035 38.4834 83.8035 36.9091ZM87.8851 29.7713V27.8182H101.521V29.7713H95.8042V46H93.6025V29.7713H87.8851Z" fill="white"/>
<path d="M175.202 27.8182H177.83L184.009 42.9105H184.222L190.401 27.8182H193.028V46H190.969V32.1861H190.791L185.109 46H183.121L177.439 32.1861H177.261V46H175.202V27.8182ZM212.784 36.9091C212.784 38.8267 212.438 40.4839 211.745 41.8807C211.053 43.2775 210.103 44.3546 208.895 45.1122C207.688 45.8698 206.309 46.2486 204.758 46.2486C203.208 46.2486 201.829 45.8698 200.621 45.1122C199.414 44.3546 198.464 43.2775 197.771 41.8807C197.079 40.4839 196.733 38.8267 196.733 36.9091C196.733 34.9915 197.079 33.3343 197.771 31.9375C198.464 30.5407 199.414 29.4635 200.621 28.706C201.829 27.9484 203.208 27.5696 204.758 27.5696C206.309 27.5696 207.688 27.9484 208.895 28.706C210.103 29.4635 211.053 30.5407 211.745 31.9375C212.438 33.3343 212.784 34.9915 212.784 36.9091ZM210.653 36.9091C210.653 35.3348 210.39 34.006 209.863 32.9229C209.342 31.8398 208.635 31.0201 207.741 30.4638C206.853 29.9074 205.859 29.6293 204.758 29.6293C203.657 29.6293 202.66 29.9074 201.766 30.4638C200.879 31.0201 200.171 31.8398 199.645 32.9229C199.124 34.006 198.863 35.3348 198.863 36.9091C198.863 38.4834 199.124 39.8121 199.645 40.8952C200.171 41.9783 200.879 42.7981 201.766 43.3544C202.66 43.9107 203.657 44.1889 204.758 44.1889C205.859 44.1889 206.853 43.9107 207.741 43.3544C208.635 42.7981 209.342 41.9783 209.863 40.8952C210.39 39.8121 210.653 38.4834 210.653 36.9091ZM216.486 27.8182H218.652V42.1293H218.83L228.773 27.8182H230.903V46H228.702V31.7244H228.524L218.617 46H216.486V27.8182ZM225.435 23.2727H227.388C227.388 24.2315 227.056 25.0157 226.394 25.6254C225.731 26.235 224.831 26.5398 223.695 26.5398C222.576 26.5398 221.685 26.235 221.022 25.6254C220.366 25.0157 220.037 24.2315 220.037 23.2727H221.99C221.99 23.7344 222.117 24.1398 222.372 24.489C222.632 24.8382 223.073 25.0128 223.695 25.0128C224.316 25.0128 224.76 24.8382 225.026 24.489C225.299 24.1398 225.435 23.7344 225.435 23.2727ZM245.998 46L239.748 37.6548H237.511V46H235.309V27.8182H237.511V35.7017H238.47L245.749 27.8182H248.377L241.026 35.8082L248.626 46H245.998ZM252.217 46H249.909L256.585 27.8182H258.858L265.534 46H263.225L257.792 30.6946H257.65L252.217 46ZM253.069 38.8977H262.373V40.8509H253.069V38.8977Z" fill="white"/>
<path d="M126.807 22.5781L128.553 27.9589H125.061L126.807 22.5781Z" fill="#366FB5"/>
<path d="M129.142 22.5781L130.887 27.9589H127.396L129.142 22.5781Z" fill="#366FB5"/>
<path d="M129.142 22.5781L130.887 27.9589H127.396L129.142 22.5781Z" fill="#366FB5"/>
<path d="M131.476 22.5781L133.222 27.9589H129.73L131.476 22.5781Z" fill="#366FB5"/>
<path d="M133.81 22.5781L135.556 27.9589H132.064L133.81 22.5781Z" fill="#366FB5"/>
<path d="M127.974 26.165L128.709 27.9586H127.974H127.239L127.974 26.165Z" fill="#C4DDF9" fill-opacity="0.52"/>
<path d="M130.309 26.165L131.044 27.9586H130.309H129.574L130.309 26.165Z" fill="#C4DDF9" fill-opacity="0.52"/>
<path d="M132.643 26.165L133.378 27.9586H132.643H131.908L132.643 26.165Z" fill="#C4DDF9" fill-opacity="0.52"/>
<path d="M147.197 27.7369L143.183 31.7409L141.586 28.653L147.197 27.7369Z" fill="#366FB5"/>
<path d="M148.265 29.8014L144.25 33.8054L142.654 30.7175L148.265 29.8014Z" fill="#366FB5"/>
<path d="M148.265 29.8014L144.25 33.8054L142.654 30.7175L148.265 29.8014Z" fill="#366FB5"/>
<path d="M149.332 31.8658L145.317 35.8698L143.721 32.7819L149.332 31.8658Z" fill="#366FB5"/>
<path d="M150.399 33.9298L146.385 37.9338L144.788 34.8459L150.399 33.9298Z" fill="#366FB5"/>
<path d="M144.523 30.4094L143.254 31.8795L142.918 31.2294L142.582 30.5793L144.523 30.4094Z" fill="#C4DDF9" fill-opacity="0.52"/>
<path d="M145.59 32.4738L144.322 33.9439L143.985 33.2938L143.649 32.6438L145.59 32.4738Z" fill="#C4DDF9" fill-opacity="0.52"/>
<path d="M146.657 34.5378L145.389 36.0079L145.053 35.3578L144.717 34.7077L146.657 34.5378Z" fill="#C4DDF9" fill-opacity="0.52"/>
<path d="M151.955 41.8854L146.543 43.6215L146.543 40.1494L151.955 41.8854Z" fill="#366FB5"/>
<path d="M151.955 44.2067L146.543 45.9428L146.543 42.4707L151.955 44.2067Z" fill="#366FB5"/>
<path d="M151.955 44.2067L146.543 45.9428L146.543 42.4707L151.955 44.2067Z" fill="#366FB5"/>
<path d="M151.955 46.5275L146.543 48.2636L146.543 44.7915L151.955 46.5275Z" fill="#366FB5"/>
<path d="M151.955 48.8488L146.543 50.5848L146.543 47.1128L151.955 48.8488Z" fill="#366FB5"/>
<path d="M148.347 43.0459L146.543 43.7769L146.543 43.0459L146.543 42.3149L148.347 43.0459Z" fill="#C4DDF9" fill-opacity="0.52"/>
<path d="M148.347 45.3672L146.543 46.0981L146.543 45.3672L146.543 44.6362L148.347 45.3672Z" fill="#C4DDF9" fill-opacity="0.52"/>
<path d="M148.347 47.688L146.543 48.4189L146.543 47.688L146.543 46.957L148.347 47.688Z" fill="#C4DDF9" fill-opacity="0.52"/>
<path d="M125.088 22.1558H134.129L134.043 23.2108L125.003 23.1229L125.088 22.1558Z" fill="white"/>
<path d="M147.207 27.5065L151.361 35.4895L150.38 35.8991L146.304 27.8756L147.207 27.5065Z" fill="white"/>
<path d="M152.592 40.8094L152.592 49.798L151.531 49.7132L151.531 40.7246L152.592 40.8094Z" fill="white"/>
</g>
<defs>
<clipPath id="clip0_463_99">
<rect width="284" height="69" rx="30" fill="white"/>
</clipPath>
</defs>
</svg>
