<svg width="100" height="100" viewBox="0 0 100 100" fill="none" xmlns="http://www.w3.org/2000/svg">
<path d="M87.8373 0.0451696C85.5803 0.239462 81.1842 0.977775 78.8094 1.58008C71.1161 3.52301 63.7171 7.37001 57.7116 12.5382C56.907 13.2377 53.0995 16.8904 49.2725 20.6596L42.3053 27.4988L33.1008 28.6839C27.8999 29.3445 23.6804 29.9857 23.386 30.1411C23.1112 30.2771 18.8328 34.4156 13.9067 39.3118C4.93766 48.2104 4.91803 48.2298 4.91803 49.0264C4.91803 49.5899 5.05541 49.9979 5.36942 50.3476C5.76194 50.8139 6.27221 50.9499 12.6702 52.1157L19.5393 53.398L20.8542 54.6803C21.5804 55.3798 22.1103 56.021 22.0318 56.0987C21.9533 56.1764 20.6187 56.9147 19.0683 57.7502C16.0066 59.4016 15.516 59.9068 15.7908 61.0531C15.8889 61.4417 19.2253 64.8807 26.7616 72.361C38.3998 83.902 38.3409 83.8437 39.5969 83.2025C40.068 82.9694 40.5586 82.2699 41.7165 80.1327C42.5604 78.5978 43.2866 77.296 43.3651 77.2183C43.4436 77.1406 44.0913 77.6652 44.7978 78.3841L46.1127 79.6858L47.3884 86.4861C48.566 92.8006 48.7033 93.3252 49.1744 93.7138C49.5276 94.0246 49.9398 94.1606 50.5089 94.1606C51.3136 94.1606 51.3332 94.1412 60.2237 85.3786C65.1106 80.5407 69.2909 76.344 69.4871 76.072C69.7815 75.664 70.0955 73.7987 71.0572 66.3573L72.2544 57.1478L79.2804 50.1533C83.1467 46.3063 86.9542 42.401 87.7588 41.4878C94.0195 34.2601 98.1605 25.0507 99.6521 15.0252C100.005 12.6159 100.123 5.09678 99.8484 2.7847C99.6325 1.11378 99.2007 0.58919 97.8465 0.31718C96.8063 0.103457 89.5055 -0.0908355 87.8373 0.0451696ZM96.0606 4.02817C96.355 4.30018 96.2568 11.6833 95.9036 14.2091C95.6288 16.1715 94.9615 19.6493 94.7064 20.4654C94.5297 21.0094 90.6242 19.7076 88.0336 18.2116C86.0121 17.0652 82.872 13.976 81.7337 12.0719C80.2617 9.52666 78.8683 5.62138 79.3786 5.32994C80.1832 4.88306 86.8953 3.87274 89.898 3.75616C91.9195 3.67845 95.8643 3.85331 96.0606 4.02817ZM75.7674 7.54488C76.9057 12.4022 80.1244 17.1624 84.3047 20.2322C86.7579 22.0391 90.3102 23.6712 92.7045 24.0986C93.0971 24.1763 93.4307 24.3124 93.4307 24.4095C93.4307 24.7592 91.5859 28.8782 90.6634 30.6269C88.5635 34.5127 86.4046 37.4466 82.872 41.2158C81.5767 42.5953 73.1768 50.9888 64.2078 59.8679L47.8987 75.9943L35.6325 63.851L23.3663 51.7076L41.952 33.3275C53.6098 21.806 61.1658 14.5006 62.1667 13.7622C64.7966 11.7999 67.8189 9.93468 70.3507 8.6912C72.4506 7.66145 75.0216 6.57341 75.4141 6.53455C75.473 6.53455 75.6497 7.00085 75.7674 7.54488ZM28.9597 40.7301L19.9318 49.6481L15.4767 48.8321C13.0431 48.3852 10.9824 47.9578 10.9235 47.8995C10.8647 47.8606 14.0833 44.5771 18.0674 40.633L25.3093 33.4635L31.5503 32.6475C34.9849 32.2006 37.8306 31.8315 37.8895 31.8121C37.9484 31.7926 33.9251 35.8145 28.9597 40.7301ZM39.4988 76.3246L38.3801 78.4229L29.6859 69.8157C24.9168 65.0944 21.0309 61.1503 21.0701 61.0726C21.0897 60.9948 21.9925 60.4508 23.072 59.8679L25.0345 58.8188L32.826 66.5322L40.6175 74.2262L39.4988 76.3246ZM67.0535 67.7757L66.2489 73.9542L58.9873 81.143C55.0032 85.0872 51.7061 88.2736 51.6472 88.2153C51.5883 88.1764 51.1762 86.1363 50.7248 83.7077L49.8809 79.2972L58.8499 70.4181C63.776 65.5219 67.8189 61.5583 67.8386 61.5777C67.8582 61.5972 67.5049 64.395 67.0535 67.7757Z" fill="#366FB5"/>
<path d="M62.3237 24.4094C57.9471 25.0117 54.022 28.4896 52.9033 32.764C52.4715 34.3766 52.4715 36.9802 52.9033 38.5928C53.865 42.2455 56.9266 45.393 60.6555 46.5782C62.3433 47.1223 65.3657 47.1611 67.0143 46.6754C73.2749 44.849 76.8469 38.5345 75.0609 32.5309C73.4123 27.0712 68.0152 23.6322 62.3237 24.4094ZM66.4059 28.4701C68.447 29.1307 70.0563 30.5685 71.0376 32.5697C71.489 33.5218 71.5479 33.8715 71.5479 35.6784C71.5479 37.4853 71.489 37.8351 71.0376 38.7871C69.6834 41.5849 67.0535 43.2558 64.0115 43.2558C62.3826 43.2558 61.1265 42.8867 59.7723 41.9929C58.4967 41.138 57.7116 40.2054 56.9658 38.6511C56.5145 37.6796 56.436 37.291 56.436 35.6784C56.436 34.0658 56.5145 33.6772 56.9658 32.7057C57.2602 32.084 57.7705 31.2291 58.1041 30.8211C58.8303 29.9273 60.5574 28.7421 61.6957 28.3924C62.9321 28.0038 65.1106 28.0427 66.4059 28.4701Z" fill="#366FB5"/>
<path d="M16.3595 70.3208C15.4763 71.2146 15.3193 71.4866 15.3193 72.0889C15.3193 73.0992 16.1829 73.9541 17.2034 73.9541C17.8118 73.9541 18.0866 73.7987 18.9894 72.9243C19.8725 72.0306 20.0295 71.7586 20.0295 71.1563C20.0295 70.146 19.166 69.2911 18.1455 69.2911C17.5371 69.2911 17.2623 69.4465 16.3595 70.3208Z" fill="#366FB5"/>
<path d="M12.1207 74.5565C11.6301 74.848 11.1983 75.9166 11.3357 76.4994C11.6104 77.6458 12.8665 78.2869 13.887 77.8012C15.0842 77.2378 15.3197 75.5086 14.3188 74.6731C13.8478 74.3039 12.6702 74.2456 12.1207 74.5565Z" fill="#366FB5"/>
<path d="M22.6795 74.5176C22.0318 74.8091 5.54608 91.3045 5.3302 91.8874C5.17319 92.2954 5.19282 92.5869 5.38907 93.092C5.72271 93.8692 6.21336 94.1606 7.21428 94.1606C7.92081 94.1606 8.23482 93.8692 16.3599 85.8449C20.9916 81.279 24.8972 77.2766 25.0346 76.9657C25.3682 76.2274 25.2112 75.4697 24.6617 74.9451C24.1514 74.4788 23.229 74.2845 22.6795 74.5176Z" fill="#366FB5"/>
<path d="M8.5487 78.3064C8.23469 78.4619 6.17397 80.366 3.97587 82.542C-0.263315 86.7776 -0.341819 86.8942 0.286209 88.1182C0.443216 88.4097 0.796481 88.74 1.09087 88.876C2.28805 89.42 2.4058 89.3423 6.64499 85.1844C8.84309 83.0083 10.786 80.9488 10.9234 80.5991C11.3159 79.7054 10.8842 78.7145 9.94214 78.3259C9.13748 77.9761 9.27486 77.9956 8.5487 78.3064Z" fill="#366FB5"/>
<path d="M23.7983 83.5133C21.6002 85.6894 19.6768 87.71 19.5394 88.0015C19.0095 89.2061 19.8927 90.469 21.2861 90.469C22.0712 90.469 22.1889 90.3718 26.2515 86.3306C30.2159 82.4058 30.4318 82.1533 30.4318 81.4538C30.4318 80.4435 29.5683 79.5886 28.5477 79.5886C27.8412 79.5886 27.5861 79.8023 23.7983 83.5133Z" fill="#366FB5"/>
<path d="M16.0851 91.2269C15.2609 92.0429 15.2805 93.1504 16.1244 93.8498C17.6356 95.1127 19.6767 93.7721 19.0487 91.9263C18.6169 90.644 17.0664 90.2748 16.0851 91.2269Z" fill="#366FB5"/>
<path d="M11.4534 95.7733C10.2366 96.9973 10.06 97.8134 10.8843 98.6877C11.8656 99.7369 13.0039 99.562 14.3384 98.1242C14.9665 97.4442 15.1235 97.1333 15.1235 96.531C15.1235 95.4624 14.3777 94.7435 13.2983 94.7435C12.6114 94.7435 12.3758 94.8795 11.4534 95.7733Z" fill="#366FB5"/>
</svg>
