<svg width="90" height="90" viewBox="0 0 90 90" fill="none" xmlns="http://www.w3.org/2000/svg">
<path d="M41.6602 0.123116C34.998 0.755928 30.041 2.16218 24.4336 5.00983C17.7891 8.40241 11.8301 13.7462 7.4707 20.2149C5.64258 22.9571 3.39258 27.5801 2.30273 30.8497C1.44141 33.4864 0.738281 36.4923 0.316406 39.463C0.0175781 41.5372 0.0175781 48.463 0.316406 50.5372C1.05469 55.7227 2.42578 60.2579 4.57031 64.5997C6.97852 69.5216 9.35156 72.8262 13.2539 76.7462C17.1387 80.6134 20.4961 83.0216 25.2246 85.3419C28.5293 86.9591 30.6562 87.7501 34.0137 88.5938C42.8027 90.8087 51.627 90.3868 60.2051 87.3458C62.8242 86.4141 67.3594 84.1466 69.6973 82.5821C76.1133 78.3106 81.4219 72.4219 84.9199 65.6544C88.1016 59.5372 89.6836 53.4551 89.9473 46.4942C90.2109 39.0059 88.6641 31.8692 85.3242 25.1544C83.1445 20.7598 80.7012 17.2969 77.2734 13.7637C73.4766 9.82624 69.75 7.11921 64.7754 4.65827C59.5723 2.09187 54.7207 0.703194 48.9551 0.17585C47.1621 0.0176468 43.1016 -0.0175171 41.6602 0.123116ZM48.6035 5.44929C62.4023 6.71491 74.6191 15.17 80.6836 27.668C82.5469 31.4825 83.6016 34.8575 84.3047 39.2872C84.7441 41.9942 84.7441 48.0059 84.3047 50.713C83.6016 55.1426 82.5469 58.5176 80.6836 62.3321C76.7637 70.3829 70.4004 76.7462 62.3145 80.7012C58.5176 82.5469 55.1426 83.6016 50.7129 84.3048C48.0059 84.7442 41.9941 84.7442 39.2871 84.3048C31.6758 83.0743 25.084 80.086 19.3359 75.2696C10.582 67.9395 5.27344 56.5137 5.27344 45.0001C5.27344 33.4864 10.5645 22.1133 19.3359 14.713C27.4922 7.85749 38.127 4.48249 48.6035 5.44929Z" fill="#366FB5"/>
<path d="M35.5078 22.7988C35.3672 22.8516 35.0508 23.0625 34.8398 23.2734C33.9082 24.1172 33.9258 23.8184 33.9258 34.8926V45.1758H32.1152C30.709 45.1758 30.1816 45.2461 29.707 45.5098C27.8262 46.4941 27.8262 49.2012 29.707 50.1328C30.1816 50.3789 30.7617 50.4492 32.1328 50.4492H33.9258V53.4199V56.3906L32.0449 56.4434C30.4453 56.5137 30.041 56.584 29.5137 56.918C27.8789 57.9199 27.9141 60.3457 29.5664 61.3477C30.0586 61.6465 30.4629 61.6992 32.0449 61.6992H33.9258V65.0215C33.9258 68.168 33.9434 68.3613 34.3301 68.9062C34.9453 69.8203 35.5254 70.1719 36.4219 70.1719C37.4062 70.1719 38.1621 69.7852 38.707 69.0469C39.0938 68.502 39.1113 68.291 39.1641 65.0742L39.2344 61.6992H45.334C51.3984 61.6992 51.4512 61.6992 52.0488 61.2949C53.666 60.2227 53.6309 58.1133 51.9785 56.8828C51.5039 56.5312 51.2578 56.5137 45.334 56.4609L39.1992 56.4082V53.4375V50.4668L46.1953 50.3965C53.7891 50.3262 53.9648 50.3086 56.3555 49.2188C59.1328 47.9707 61.6465 45.5625 63 42.8555C64.2305 40.3945 64.582 38.7773 64.4766 35.9473C64.4062 34.0664 64.3008 33.416 63.9141 32.2559C62.4375 27.9316 59.3262 24.8027 54.9316 23.2559L53.5254 22.7637L44.6484 22.7285C39.7617 22.7109 35.6484 22.7461 35.5078 22.7988ZM53.2441 28.2832C55.9863 29.127 58.4121 31.7285 59.0449 34.4707C59.1504 34.8926 59.2383 35.8418 59.2383 36.5801C59.2383 40.623 56.373 44.1562 52.418 44.9824C51.8379 45.1055 49.1484 45.1758 45.3516 45.1758H39.1992V36.5625V27.9492H45.6855C51.5566 27.9492 52.2773 27.9844 53.2441 28.2832Z" fill="#366FB5"/>
</svg>
