<svg width="50" height="50" viewBox="0 0 50 50" fill="none" xmlns="http://www.w3.org/2000/svg">
<path d="M0 25C0 11.1929 11.1929 0 25 0V0C38.8071 0 50 11.1929 50 25V25C50 38.8071 38.8071 50 25 50V50C11.1929 50 0 38.8071 0 25V25Z" fill="url(#paint0_linear_463_35)"/>
<path fill-rule="evenodd" clip-rule="evenodd" d="M11.3168 24.7359C18.6048 21.5606 23.4646 19.4673 25.8962 18.4559C32.839 15.5682 34.2817 15.0665 35.222 15.05C35.4288 15.0463 35.8912 15.0976 36.1907 15.3406C36.4436 15.5459 36.5132 15.8231 36.5465 16.0177C36.5798 16.2122 36.6213 16.6555 36.5883 17.0018C36.2121 20.9549 34.5841 30.548 33.7559 34.9755C33.4055 36.849 32.7155 37.4772 32.0474 37.5386C30.5956 37.6722 29.4932 36.5792 28.0871 35.6574C25.8867 34.2151 24.6437 33.3172 22.5079 31.9098C20.0396 30.2832 21.6397 29.3892 23.0464 27.9282C23.4145 27.5459 29.8111 21.7276 29.9349 21.1998C29.9504 21.1338 29.9648 20.8877 29.8186 20.7578C29.6724 20.6279 29.4567 20.6723 29.301 20.7077C29.0803 20.7577 25.5653 23.0811 18.7559 27.6776C17.7581 28.3627 16.8544 28.6965 16.0447 28.679C15.1521 28.6598 13.435 28.1743 12.1586 27.7594C10.5929 27.2505 9.3486 26.9814 9.45696 26.1171C9.51339 25.6669 10.1333 25.2065 11.3168 24.7359Z" fill="white"/>
<defs>
<linearGradient id="paint0_linear_463_35" x1="25" y1="0" x2="25" y2="49.6292" gradientUnits="userSpaceOnUse">
<stop stop-color="#2AABEE"/>
<stop offset="1" stop-color="#229ED9"/>
</linearGradient>
</defs>
</svg>
