<svg width="50" height="50" viewBox="0 0 50 50" fill="none" xmlns="http://www.w3.org/2000/svg">
<path fill-rule="evenodd" clip-rule="evenodd" d="M0 24.7496C0 11.0808 11.1929 0 25 0C38.8071 0 50 11.0808 50 24.7496C50 38.4184 38.8071 49.4992 25 49.4992C11.1929 49.4992 0 38.4184 0 24.7496Z" fill="#4C6C91"/>
<path fill-rule="evenodd" clip-rule="evenodd" d="M26.3076 32.8719C26.3076 32.8719 26.7889 32.8199 27.0354 32.5626C27.261 32.3269 27.2532 31.882 27.2532 31.882C27.2532 31.882 27.2232 29.8047 28.2158 29.4979C29.194 29.1963 30.45 31.5068 31.7829 32.3953C32.7898 33.0671 33.5541 32.92 33.5541 32.92L37.1161 32.8719C37.1161 32.8719 38.9786 32.7603 38.0956 31.337C38.0225 31.2204 37.5804 30.2838 35.4479 28.3598C33.2137 26.3458 33.5137 26.6715 36.2031 23.1873C37.8412 21.0657 38.496 19.7703 38.2912 19.2165C38.0969 18.6867 36.8917 18.8274 36.8917 18.8274L32.8824 18.8514C32.8824 18.8514 32.5851 18.8121 32.3646 18.9402C32.1494 19.0656 32.0099 19.3584 32.0099 19.3584C32.0099 19.3584 31.376 20.9997 30.5295 22.3965C28.744 25.342 28.0305 25.4979 27.7384 25.3154C27.0589 24.8883 27.2284 23.6018 27.2284 22.688C27.2284 19.8324 27.6745 18.6423 26.3611 18.3343C25.9255 18.2317 25.6046 18.1645 24.4895 18.1531C23.0587 18.1391 21.8483 18.1581 21.1623 18.4839C20.7058 18.7006 20.3536 19.1848 20.5688 19.2127C20.8336 19.2469 21.4336 19.3698 21.7518 19.7906C22.1626 20.3343 22.1483 21.5536 22.1483 21.5536C22.1483 21.5536 22.3844 24.9149 21.5966 25.3319C21.0566 25.6183 20.3158 25.034 18.7233 22.361C17.9081 20.9921 17.2925 19.4788 17.2925 19.4788C17.2925 19.4788 17.1738 19.1962 16.9612 19.0441C16.7043 18.8603 16.3456 18.8033 16.3456 18.8033L12.5358 18.8274C12.5358 18.8274 11.9633 18.8426 11.7533 19.0846C11.5668 19.2988 11.7389 19.7437 11.7389 19.7437C11.7389 19.7437 14.7218 26.5258 18.0999 29.9441C21.1975 33.0772 24.7138 32.8719 24.7138 32.8719H26.3076Z" fill="white"/>
</svg>
