<svg width="110" height="96" viewBox="0 0 110 96" fill="none" xmlns="http://www.w3.org/2000/svg">
<path d="M27.3142 0.288437C26.325 0.723648 25.0721 1.89872 24.5226 2.89971L24.039 3.79189L23.9731 22.5495L23.9291 41.2854L22.6542 42.0035C20.8738 42.9827 19.0934 44.2231 17.1151 45.7899L15.4006 47.1608L9.99333 47.9442C6.2566 48.4882 4.30031 48.8581 3.70683 49.1627C2.58581 49.7285 1.64063 51.317 1.26696 53.2537C0.959231 54.9728 1.1131 58.955 1.59667 61.4792L1.94837 63.2418L1.20102 64.504C0.211885 66.0925 -0.117826 67.7245 0.0360389 69.9441C0.211885 72.1855 0.739423 73.9481 1.42083 74.5574L1.97035 75.0579H10.4989H19.0494L19.1813 76.0371C19.4451 77.7779 20.7199 79.8887 22.3905 81.4337L23.9291 82.8481V86.6345C23.9291 92.0746 24.4786 93.4891 27.1383 94.773C28.1934 95.2734 28.5231 95.3387 29.776 95.2299C31.6664 95.0994 33.0292 94.2725 33.9524 92.7275C34.8316 91.2913 34.9195 90.7255 34.9195 86.3734V82.7829L36.1065 81.8472C37.6451 80.6721 38.986 78.6484 39.5794 76.6464L40.063 75.0579H54.8341H69.6052L69.759 75.863C69.825 76.32 70.2426 77.408 70.6602 78.2784C72.6385 82.3694 77.0786 84.6978 81.6286 84.045C85.827 83.4574 89.3878 80.2586 90.355 76.2112L90.6408 75.0579H98.1142C102.642 75.0579 105.917 74.9708 106.423 74.8185C109.588 73.9481 110.863 69.5089 109.39 64.504C108.731 62.2191 107.984 60.957 106.269 59.1944C102.313 55.1034 97.5867 52.688 90.9265 51.317L88.5746 50.8383L88.5086 27.4239L88.4427 4.0095L87.8492 2.92147C87.1458 1.59407 86.5523 1.00654 85.2555 0.440758C84.2663 0.00554657 83.9806 -0.0162125 56.131 0.00554657C33.0951 0.00554657 27.8637 0.0490723 27.3142 0.288437ZM84.2663 2.68211C84.684 2.85619 85.2335 3.33492 85.4753 3.72661C85.9149 4.44471 85.9149 4.74937 85.9149 27.4674V50.4901L84.684 50.3378C83.6509 50.229 83.1233 49.9896 81.7166 48.9669L79.9801 47.7701V28.2726C79.9801 13.3883 79.9141 8.70979 79.7163 8.51395C79.5185 8.3181 74.0013 8.25282 56.2189 8.25282H32.9632L32.6335 8.73155C32.3258 9.16676 32.2818 13.4536 32.2818 50.0114C32.2818 90.5296 32.2818 90.7908 31.8422 91.4871C31.0069 92.8145 29.0946 93.1844 27.7098 92.2922C26.5009 91.5089 26.5668 94.3595 26.5668 47.4872C26.5668 7.99169 26.5888 4.16183 26.9185 3.70485C27.1163 3.44373 27.5779 3.03027 27.9736 2.79091C28.633 2.39922 29.4683 2.37746 56.087 2.37746C79.4525 2.37746 83.6289 2.42097 84.2663 2.68211ZM77.5622 28.3814C77.5622 38.1301 77.4963 46.1163 77.3864 46.1163C77.2984 46.1163 76.8808 45.8769 76.4632 45.594C75.1443 44.7236 70.5064 42.2864 68.1105 41.2201C59.3401 37.3032 50.2621 35.4971 42.349 36.1064C39.6893 36.3022 35.9526 36.8245 35.2053 37.0856C34.9855 37.1509 34.9195 34.4308 34.9195 23.9204V10.6465H56.2409H77.5622V28.3814ZM50.5259 38.8047C60.0655 39.9363 69.825 43.8749 79.3207 50.4466C80.8373 51.4911 82.2001 52.4268 82.376 52.5356C82.5518 52.6444 84.2443 52.9056 86.1127 53.1014C89.9813 53.5366 93.762 54.4288 96.3118 55.4733L98.0483 56.1697L97.3888 56.866C94.8611 59.499 96.0041 62.4802 100.356 64.6128C101.829 65.3309 105.368 66.593 106.753 66.8759L107.456 67.05V68.4862C107.456 70.2488 107.192 71.2498 106.533 71.9461L106.071 72.4466H98.334H90.5968L90.4429 71.5326C89.8934 68.1162 86.4644 64.591 82.7497 63.6118C79.1228 62.6543 74.6607 64.0035 72.1989 66.8106C71.2098 67.9421 69.9569 70.3793 69.759 71.5979L69.6052 72.4466H54.8341H40.041L39.6454 71.0321C39.0079 68.7038 37.3374 66.2666 35.6449 65.2438L34.9195 64.7869V61.1093V57.4318H39.4036C43.2063 57.4318 43.9536 57.3882 44.2394 57.0836C44.5471 56.8007 44.591 55.8433 44.591 49.9244C44.591 42.1123 44.657 42.417 42.7666 42.417C41.4918 42.417 38.1067 42.8957 36.1944 43.3744L34.9195 43.6573V41.6553V39.6316L36.9637 39.2617C41.6017 38.4565 46.1737 38.3042 50.5259 38.8047ZM23.9071 46.3774V48.6187L22.5883 49.5327L21.2914 50.4684V53.6019C21.2914 57.2359 21.3794 57.4318 22.962 57.4318H23.9291V61.044V64.6563L22.3905 66.0707C20.7199 67.6157 19.3791 69.8571 19.1593 71.5544L19.0274 72.4466L10.9825 72.4031L2.9375 72.3378L2.65175 70.8145C2.30006 68.9866 2.56383 66.9629 3.26721 65.8096L3.75079 65.048H5.97085C9.13608 65.048 8.98221 65.2873 8.98221 60.1518C8.98221 56.5178 8.93825 55.9303 8.60854 55.6692C8.36675 55.4516 7.46554 55.3428 5.86094 55.2992L3.46504 55.2122L3.59692 54.32C3.81673 52.862 4.12446 52.0787 4.652 51.5999C5.06963 51.2082 6.03679 51.0124 10.8286 50.3161L16.5216 49.5109L18.1922 48.1182C19.5769 46.9867 23.5994 44.1578 23.8632 44.1578C23.9071 44.1578 23.9291 45.1588 23.9071 46.3774ZM42.1732 50.0332V55.0381H38.5463H34.9195L34.9635 50.6425L35.0294 46.2468L36.0186 45.9639C37.4473 45.5505 40.1509 45.0718 41.25 45.05L42.1732 45.0282V50.0332ZM23.8632 54.2112C23.8192 54.7335 23.7753 54.3635 23.7753 53.4061C23.7753 52.4486 23.8192 52.0351 23.8632 52.4704C23.9071 52.9273 23.9071 53.7107 23.8632 54.2112ZM101.961 58.6286C104.357 60.4565 106.994 63.6118 106.511 64.1123C106.313 64.2864 102.51 62.959 101.016 62.1756C99.6968 61.4792 98.4439 60.2606 98.4439 59.6949C98.4439 59.2379 100.202 57.41 100.51 57.5841C100.642 57.6711 101.301 58.1281 101.961 58.6286ZM6.56433 60.1518V62.4367H5.48727C4.63002 62.4367 4.36625 62.3497 4.27833 62.045C4.05852 61.3269 3.70683 59.0856 3.70683 58.4763C3.70683 57.867 3.70683 57.867 5.13558 57.867H6.56433V60.1518ZM82.1342 66.0054C84.4422 66.6147 86.1787 68.0509 87.3876 70.314C87.9371 71.3586 88.0031 71.685 88.0031 73.6434C88.0031 75.6672 87.9591 75.9283 87.2777 77.2774C84.3323 83.2181 75.7598 83.0875 72.8144 77.0598C72.2648 75.9718 72.1989 75.5583 72.1769 73.7522C72.1769 72.0549 72.2648 71.4891 72.6825 70.6187C74.397 66.9412 78.3315 65.0045 82.1342 66.0054ZM36.2164 69.3566C37.755 71.7502 37.9309 74.5574 36.7219 77.0598C36.3483 77.8214 35.7987 78.7136 35.491 79.0836L34.9415 79.7364L34.9195 73.774C34.9195 67.2023 34.8975 67.3111 36.2164 69.3566ZM23.9291 73.7957V79.4753L23.4016 78.9965C23.1158 78.7354 22.6103 77.9738 22.2586 77.2774C21.3794 75.5801 21.2475 72.7295 21.9289 70.9233C22.3245 69.9006 23.5335 68.0945 23.8412 68.0945C23.8852 68.0945 23.9291 70.6622 23.9291 73.7957Z" fill="#366FB5"/>
<path d="M39.8212 23.1794C39.1618 23.4188 39.0739 23.9193 39.1398 27.1834C39.2058 29.9687 39.2058 29.9905 39.7773 30.3169C40.3048 30.5998 40.4147 30.5998 40.9422 30.2734L41.5137 29.9035V26.7699C41.5137 24.5286 41.4258 23.5929 41.25 23.4406C40.7664 23.0706 40.3268 22.9836 39.8212 23.1794Z" fill="#366FB5"/>
<path d="M46.1076 23.2447C45.58 23.4841 45.58 23.5276 45.58 26.7482V29.9905L46.1515 30.3169C46.6791 30.5998 46.789 30.5998 47.3165 30.2734C47.888 29.9035 47.888 29.8817 47.888 26.9005C47.888 23.8323 47.7781 23.3753 46.9868 23.0924C46.789 23.0271 46.3933 23.0924 46.1076 23.2447Z" fill="#366FB5"/>
<path d="M52.482 23.2447C51.9765 23.4841 51.9545 23.5711 51.8885 26.6394C51.8226 29.6423 51.8446 29.8164 52.3062 30.1646C52.9216 30.6651 53.2733 30.6651 53.8228 30.121C54.2185 29.7294 54.2625 29.4029 54.2625 26.7917C54.2625 23.8322 54.1525 23.3753 53.3612 23.0924C53.1634 23.0271 52.7678 23.0924 52.482 23.2447Z" fill="#366FB5"/>
<path d="M58.8565 23.2447C58.3509 23.4841 58.3289 23.5711 58.263 26.6394C58.197 29.6423 58.219 29.8164 58.6806 30.1646C59.2961 30.6651 59.6478 30.6651 60.1973 30.121C60.5929 29.7294 60.6369 29.4029 60.6369 26.7917C60.6369 23.8322 60.527 23.3753 59.7357 23.0924C59.5379 23.0271 59.1422 23.0924 58.8565 23.2447Z" fill="#366FB5"/>
<path d="M65.2309 23.2229C64.7034 23.4841 64.7034 23.5493 64.6374 26.6394C64.5715 29.6423 64.5935 29.8164 65.0551 30.1646C65.6705 30.6651 66.0222 30.6651 66.5718 30.121C66.9674 29.7294 67.0114 29.4029 67.0114 26.7917C67.0114 25.2249 66.9234 23.8105 66.8355 23.6799C66.4838 23.1577 65.7804 22.9618 65.2309 23.2229Z" fill="#366FB5"/>
<path d="M71.2977 23.4841C70.7701 23.9846 70.7482 24.1369 70.7482 26.7482C70.7482 29.3812 70.7701 29.5118 71.2977 30.034C71.7153 30.4257 71.9791 30.5345 72.3528 30.4475C73.276 30.1646 73.3859 29.7511 73.3859 26.7264C73.3859 23.8758 73.3859 23.8322 72.8144 23.397C72.067 22.8095 71.9351 22.8313 71.2977 23.4841Z" fill="#366FB5"/>
<path d="M39.4695 33.7768C39.1618 34.1032 39.0959 34.6907 39.0959 37.1279C39.0959 39.6957 39.1398 40.1091 39.4915 40.4138C39.9971 40.8707 40.7224 40.8925 41.162 40.4355C41.4478 40.1744 41.5137 39.5434 41.5137 37.1062C41.5137 34.4731 41.4698 34.0597 41.1181 33.755C40.5905 33.2763 39.9091 33.2981 39.4695 33.7768Z" fill="#366FB5"/>
<path d="M45.844 33.7768C45.5362 34.1032 45.4703 34.6907 45.4703 37.1497C45.4703 40.3485 45.6242 40.7837 46.6792 40.7837C47.7343 40.7837 47.8882 40.3485 47.8882 37.1062C47.8882 34.4731 47.8442 34.0597 47.4925 33.755C46.965 33.2763 46.2836 33.298 45.844 33.7768Z" fill="#366FB5"/>
<path d="M52.2184 33.7768C51.9107 34.1032 51.8448 34.6907 51.8448 37.1497C51.8448 40.3267 51.9986 40.7837 53.0317 40.7837C54.0868 40.7837 54.2627 40.2397 54.2627 37.0409C54.2627 34.4731 54.2187 34.0597 53.867 33.755C53.3395 33.2763 52.6581 33.298 52.2184 33.7768Z" fill="#366FB5"/>
<path d="M58.5706 33.7333C58.2849 34.0162 58.2189 34.6472 58.2189 37.1932C58.2189 40.0656 58.2629 40.3485 58.6366 40.5661C59.274 40.8925 59.8675 40.8272 60.2631 40.392C60.5709 40.0656 60.6368 39.4781 60.6368 37.0409C60.6368 34.4732 60.5929 34.0597 60.2412 33.7551C59.7356 33.2981 59.0102 33.2763 58.5706 33.7333Z" fill="#366FB5"/>
<path d="M64.9891 33.6245C64.6374 33.8203 64.5934 34.2338 64.5934 37.0409C64.5934 40.5008 64.6813 40.7837 65.6924 40.7837C66.8354 40.7837 67.0113 40.2832 67.0113 37.1714C67.0113 34.9736 66.9453 34.2555 66.6596 33.8638C66.3079 33.3633 65.6045 33.2545 64.9891 33.6245Z" fill="#366FB5"/>
<path d="M71.2756 33.6897C70.9019 33.9726 70.8579 34.3208 70.792 36.8015C70.7261 40.0221 70.9019 40.6314 72.0009 40.7402C73.1659 40.849 73.3857 40.2832 73.3857 37.0409C73.3857 34.5384 73.3418 34.212 72.9461 33.8203C72.4186 33.2981 71.8691 33.2763 71.2756 33.6897Z" fill="#366FB5"/>
<path d="M46.7013 42.7652C46.3936 43.0481 46.3496 44.0056 46.3496 49.9245C46.3496 55.8434 46.3936 56.8008 46.7013 57.0837C47.009 57.3884 48.7895 57.4319 63.1429 57.4319C78.4635 57.4319 79.2768 57.4101 79.6065 57.0402C80.5077 56.061 80.0461 55.4952 76.1335 52.9057C67.7589 47.3785 59.3622 43.9621 51.2513 42.7435C48.3499 42.33 47.1409 42.33 46.7013 42.7652ZM54.2187 45.8117C60.4613 47.1826 68.1765 50.5991 74.1553 54.603L74.8147 55.0382H61.8021H48.7675V50.0115V44.9631L50.2622 45.1154C51.0755 45.2024 52.8559 45.5071 54.2187 45.8117Z" fill="#366FB5"/>
<path d="M46.7011 59.5208C46.2395 59.9778 46.2614 60.7612 46.745 61.1964C47.3605 61.7622 51.4049 61.7187 51.9105 61.1746C52.3721 60.6741 52.3941 59.956 51.9325 59.5208C51.6687 59.2379 51.0972 59.1727 49.3168 59.1727C47.5363 59.1727 46.9648 59.2379 46.7011 59.5208Z" fill="#366FB5"/>
<path d="M78.815 69.6176C76.3092 70.3575 75.0783 73.404 76.3092 75.7324C77.9358 78.7788 82.3759 78.7353 83.9585 75.6671C84.6619 74.3179 84.486 72.3159 83.5848 71.2062C82.3979 69.7264 80.5515 69.1171 78.815 69.6176ZM81.5186 72.6206C82.4858 73.8174 81.6725 75.493 80.0899 75.493C78.1776 75.493 77.5841 72.8817 79.3425 72.1419C80.2218 71.7719 80.9911 71.9243 81.5186 72.6206Z" fill="#366FB5"/>
</svg>
